<svg viewBox="0 0 255 80" fill="none" xmlns="http://www.w3.org/2000/svg">
<path d="M126.926 14.8462V0H175.542V14.8462H126.926Z" fill="white"/>
<path d="M175.542 45.3752V30.7381H142.399V20.9103H126.926V77.786H175.542V62.7307H142.399V45.3752H175.542Z" fill="white"/>
<path d="M116.052 14.8462V0H67.4355V14.8462H116.052Z" fill="white"/>
<path d="M82.9091 45.3752V62.7307H116.052V77.786H67.4355V20.9103H82.9091V31.3654H116.052V46.0025L82.9091 45.3752Z" fill="white"/>
<path d="M52.7973 61.1623C53.3207 58.8297 53.5663 56.4433 53.5292 54.0529V0H38.1602V52.2755L52.7973 61.1623Z" fill="white"/>
<path d="M37.1156 58.5484C36.6373 59.5755 35.9624 60.499 35.1291 61.2667C32.5699 63.4205 29.2619 64.473 25.9287 64.1941C23.3319 64.3719 20.7423 63.7574 18.5022 62.432C16.262 61.1066 14.4768 59.1326 13.3825 56.771L0 64.4032C2.31802 69.213 6.03205 73.2124 10.6574 75.8794C15.2828 78.5465 20.6047 79.7573 25.9287 79.354C33.1642 79.6328 40.2448 77.2105 45.7934 72.5582C47.7384 70.7931 49.3653 68.7065 50.6027 66.3897L37.1156 58.5484Z" fill="white"/>
<path d="M228.967 5.64575L221.334 28.4379L239.317 79.3542H255L228.967 5.64575Z" fill="white"/>
<path d="M221.648 49.9754H207.116L223.948 0H208.056L180.56 78.6224H197.288L201.993 64.4034H226.562L221.648 49.9754Z" fill="white"/>
</svg>
