<svg viewBox="0 0 255 134" fill="none" xmlns="http://www.w3.org/2000/svg">
<g clip-path="url(#clip0_168_6933)">
<path d="M69.2577 107.03C67.8153 108.916 66.7685 111.426 64.8758 112.584C52.5761 120.109 37.7935 119.472 26.6927 110.298C17.5273 102.719 13.7967 92.5206 12.2752 81.1943C10.3886 67.188 14.4661 54.8127 23.309 44.1048C27.8369 38.6478 34.3245 35.798 41.4268 34.3367C49.588 32.6572 57.2501 35.3069 65.0705 36.5014C71.765 37.52 78.3926 38.7387 85.0567 39.8119C92.5181 41.0246 99.9733 42.2373 107.447 43.2802C112.979 44.0623 118.541 44.6262 124.092 45.2447C131.431 46.0531 138.775 46.8414 146.123 47.6094C149.117 47.9126 152.124 48.2157 155.13 48.2461C167.764 48.5007 180.435 49.3071 193.033 48.6947C206.002 48.0884 219.087 46.7727 230.857 40.3516C234.509 38.3749 237.552 35.7434 239.511 31.9781C240.759 29.5527 240.777 27.6731 238.677 25.551C237.685 24.5444 237.46 22.5193 237.393 20.9428C237.259 18.5174 238.702 16.6681 241.161 17.0198C243.406 17.3412 244.429 19.3603 244.569 21.7068C245.177 32.6208 240.108 40.1515 230.638 45.1113C222.927 49.1556 214.577 51.1746 205.978 51.8356C194.962 52.6905 183.904 53.6546 172.877 53.5515C161.849 53.4484 150.675 52.1933 139.587 51.2717C131.724 50.6168 123.867 49.8468 116.046 48.8463C106.783 47.6337 97.5511 46.1421 88.3188 44.705C78.1066 43.1165 67.9025 41.4854 57.7066 39.8119C54.7732 39.3329 51.8945 38.3264 48.955 38.1081C42.79 37.6655 37.0023 39.0661 32.2553 43.1953C24.9522 49.5679 22.1283 57.9353 21.2032 67.3577C20.3756 75.7919 21.0085 84.0198 23.808 91.9021C28.5368 105.241 38.8281 113.306 53.629 112.099C57.8892 111.754 61.9728 109.389 66.1112 107.855C66.9573 107.439 67.757 106.935 68.4969 106.351L69.2577 107.03Z" fill="white"/>
<path d="M214.73 111.481H194.311L194.098 110.602C195.051 110.277 196.031 110.036 197.026 109.88C201.018 109.607 201.444 109.207 201.444 105.266V65.66C200.032 67.0303 198.967 67.6306 198.559 68.528C193.78 79.0297 189.061 89.5355 184.404 100.045C182.578 104.065 180.88 108.116 178.841 112.778C177.849 110.517 177.07 108.679 176.242 106.867C173.084 99.9604 169.895 93.0724 166.748 86.1602C164.21 80.6001 161.764 75.0037 159.165 69.4739C158.654 68.3825 157.619 67.5275 156.828 66.5635L155.812 67.097V102.301C155.812 108.91 155.812 108.904 162.299 109.862C162.766 110.026 163.204 110.264 163.596 110.565C161.922 111.778 150.815 112.172 145.295 111.056C146.811 110.45 147.565 109.947 148.338 109.844C152.787 109.328 153.347 108.746 153.347 104.265V63.2286C153.347 59.2268 152.739 58.7296 148.667 58.4507C147.791 58.3901 146.969 57.5897 146.123 57.1289C146.937 56.9213 147.765 56.7754 148.6 56.6923C151.235 56.6317 153.895 56.8803 156.512 56.5893C158.946 56.3103 160.206 57.3593 161.107 59.3359C166.953 72.166 172.82 84.9839 178.707 97.7897C179.133 98.7113 180.149 99.3662 180.892 100.142C181.519 99.3851 182.077 98.5734 182.559 97.717C188.475 84.705 194.311 71.6445 200.318 58.6872C200.653 58.066 201.118 57.524 201.682 57.0982C202.246 56.6723 202.896 56.3725 203.586 56.2194C206.623 55.9525 209.676 55.9322 212.715 56.1587C213.415 56.1891 214.085 56.9349 214.766 57.3714C214.158 57.7595 213.549 58.3961 212.904 58.4871C207.84 59.1662 207.542 59.4512 207.542 64.3928C207.542 77.7746 207.585 91.1503 207.542 104.526C207.542 107.691 207.786 109.449 212.606 109.862C213.424 110.007 214.225 110.234 214.997 110.541L214.73 111.481Z" fill="white"/>
<path d="M139.885 99.1479C139.69 102.937 139.556 106.733 139.222 110.517C139.185 110.947 138.005 111.608 137.396 111.614C126.368 111.681 115.341 111.663 103.589 111.663C109.066 107.37 106.924 101.919 107.033 97.0439C107.289 85.6873 107.1 74.3185 107.125 62.9558C107.125 60.2515 106.668 58.1778 103.138 58.4749C102.292 58.5477 101.361 57.7291 100.473 57.3229L100.68 56.4983H137.603C137.292 60.2212 136.994 64.0593 136.647 67.9034H136.039C135.753 67.0546 135.4 66.2239 135.193 65.3568C133.909 59.9726 133.215 59.2935 127.811 59.148C123.964 59.0267 120.106 59.1843 116.247 59.0995C114.422 59.057 113.722 59.7604 113.752 61.5794C113.831 66.2057 113.813 70.832 113.752 75.4523C113.691 82.0613 113.667 82.122 120.41 82.0311C123.114 82.046 125.813 81.8126 128.474 81.3338C129.381 81.1579 130.3 79.7937 130.726 78.7751C131.152 77.7564 131.152 76.3497 131.334 75.1371L132.192 75.1916V91.696L131.584 91.8294C131.255 91.2188 131.005 90.5688 130.841 89.8952C130.312 85.1597 130.348 84.996 125.589 84.5231C122.453 84.2957 119.304 84.2957 116.168 84.5231C114.342 84.6141 113.077 85.4448 113.125 87.7246C113.247 93.8546 113.21 99.9907 113.125 106.121C113.125 107.903 113.703 108.667 115.56 108.643C121.037 108.57 126.514 108.679 131.992 108.595C135.789 108.54 137.615 106.539 138.078 102.368C138.271 101.224 138.531 100.092 138.857 98.9781L139.885 99.1479Z" fill="white"/>
<path d="M95.549 18.6509C95.549 25.6844 90.0108 31.9236 83.7058 31.9903C77.8999 32.0145 71.814 25.3509 71.814 18.9359C71.814 12.2662 77.5652 6.02701 83.6998 6.03914C89.8344 6.05127 95.549 12.2056 95.549 18.6509Z" fill="white"/>
<path d="M73.9198 56.5104H94.6849L94.8675 57.5169C93.6503 57.8625 92.4697 58.5174 91.289 58.4871C88.4895 58.4083 87.5827 59.6028 87.6009 62.2767C87.6861 74.4317 87.6861 86.5907 87.6009 98.7538C87.5705 104.684 87.6435 110.674 85.1666 116.265C83.0608 121.018 79.7927 124.753 74.8205 126.712C71.6741 127.925 71.1689 127.536 71.1689 124.117V122.073C72.9582 122.237 74.5771 122.37 76.1959 122.534C79.0259 122.825 80.6752 120.903 80.7665 118.775C81.089 111.129 80.9247 103.465 80.9368 95.807C80.9368 94.4973 80.9368 93.1937 80.9368 91.8901C80.9368 82.0372 80.8821 72.1903 80.9734 62.3434C80.9734 59.7301 80.2126 58.3961 77.3522 58.4871C76.1837 58.5295 74.9909 57.8808 73.8042 57.5776L73.9198 56.5104Z" fill="white"/>
</g>
<defs>
<clipPath id="clip0_168_6933">
<rect width="255" height="134" fill="white" />
</clipPath>
</defs>
</svg>
