<svg width="436" height="340" viewBox="0 0 436 340" fill="none" xmlns="http://www.w3.org/2000/svg">
<g filter="url(#filter0_d_116_5739)">
<rect x="15" y="15" width="398" height="302" rx="10" fill="url(#paint0_radial_116_5739)"/>
</g>
<g clip-path="url(#clip0_116_5739)">
<path d="M156.258 206.03C154.815 207.916 153.769 210.426 151.876 211.584C139.576 219.109 124.793 218.472 113.693 209.298C104.527 201.719 100.797 191.521 99.2752 180.194C97.3886 166.188 101.466 153.813 110.309 143.105C114.837 137.648 121.324 134.798 128.427 133.337C136.588 131.657 144.25 134.307 152.071 135.501C158.765 136.52 165.393 137.739 172.057 138.812C179.518 140.025 186.973 141.237 194.447 142.28C199.979 143.062 205.541 143.626 211.092 144.245C218.431 145.053 225.775 145.841 233.123 146.609C236.117 146.913 239.124 147.216 242.13 147.246C254.764 147.501 267.435 148.307 280.033 147.695C293.002 147.088 306.087 145.773 317.857 139.352C321.509 137.375 324.552 134.743 326.511 130.978C327.759 128.553 327.777 126.673 325.677 124.551C324.685 123.544 324.46 121.519 324.393 119.943C324.259 117.517 325.702 115.668 328.161 116.02C330.406 116.341 331.429 118.36 331.569 120.707C332.177 131.621 327.108 139.151 317.638 144.111C309.927 148.156 301.577 150.175 292.978 150.836C281.962 151.69 270.904 152.655 259.877 152.551C248.849 152.448 237.675 151.193 226.587 150.272C218.724 149.617 210.867 148.847 203.046 147.846C193.783 146.634 184.551 145.142 175.319 143.705C165.107 142.116 154.903 140.485 144.707 138.812C141.773 138.333 138.895 137.326 135.955 137.108C129.79 136.665 124.002 138.066 119.255 142.195C111.952 148.568 109.128 156.935 108.203 166.358C107.376 174.792 108.008 183.02 110.808 190.902C115.537 204.241 125.828 212.306 140.629 211.099C144.889 210.754 148.973 208.389 153.111 206.855C153.957 206.439 154.757 205.935 155.497 205.351L156.258 206.03Z" fill="white"/>
<path d="M301.73 210.481H281.311L281.098 209.602C282.051 209.277 283.031 209.036 284.026 208.88C288.018 208.607 288.444 208.207 288.444 204.266V164.66C287.032 166.03 285.967 166.631 285.559 167.528C280.78 178.03 276.061 188.535 271.404 199.045C269.578 203.065 267.88 207.116 265.841 211.778C264.849 209.517 264.07 207.679 263.242 205.867C260.084 198.96 256.895 192.072 253.748 185.16C251.21 179.6 248.764 174.004 246.165 168.474C245.654 167.382 244.619 166.528 243.828 165.563L242.812 166.097V201.301C242.812 207.91 242.812 207.904 249.299 208.862C249.766 209.026 250.204 209.264 250.596 209.565C248.922 210.778 237.815 211.172 232.295 210.056C233.811 209.45 234.565 208.947 235.338 208.844C239.787 208.328 240.347 207.746 240.347 203.265V162.229C240.347 158.227 239.739 157.73 235.667 157.451C234.791 157.39 233.969 156.59 233.123 156.129C233.937 155.921 234.765 155.775 235.6 155.692C238.235 155.632 240.895 155.88 243.512 155.589C245.946 155.31 247.206 156.359 248.107 158.336C253.953 171.166 259.82 183.984 265.707 196.79C266.133 197.711 267.149 198.366 267.892 199.142C268.519 198.385 269.077 197.573 269.559 196.717C275.475 183.705 281.311 170.645 287.318 157.687C287.653 157.066 288.118 156.524 288.682 156.098C289.246 155.672 289.896 155.373 290.586 155.219C293.623 154.953 296.676 154.932 299.715 155.159C300.415 155.189 301.085 155.935 301.766 156.371C301.158 156.759 300.549 157.396 299.904 157.487C294.84 158.166 294.542 158.451 294.542 163.393C294.542 176.775 294.585 190.15 294.542 203.526C294.542 206.691 294.786 208.449 299.606 208.862C300.424 209.007 301.225 209.234 301.997 209.541L301.73 210.481Z" fill="white"/>
<path d="M226.885 198.148C226.69 201.937 226.556 205.733 226.222 209.517C226.185 209.947 225.005 210.608 224.396 210.614C213.368 210.681 202.341 210.663 190.589 210.663C196.066 206.37 193.924 200.919 194.033 196.044C194.289 184.687 194.1 173.318 194.125 161.956C194.125 159.252 193.668 157.178 190.138 157.475C189.292 157.548 188.361 156.729 187.473 156.323L187.68 155.498H224.603C224.292 159.221 223.994 163.059 223.647 166.903H223.039C222.753 166.055 222.4 165.224 222.193 164.357C220.909 158.973 220.215 158.293 214.811 158.148C210.964 158.027 207.106 158.184 203.247 158.099C201.422 158.057 200.722 158.76 200.752 160.579C200.831 165.206 200.813 169.832 200.752 174.452C200.691 181.061 200.667 181.122 207.41 181.031C210.114 181.046 212.813 180.813 215.474 180.334C216.381 180.158 217.3 178.794 217.726 177.775C218.152 176.756 218.152 175.35 218.334 174.137L219.192 174.192V190.696L218.584 190.829C218.255 190.219 218.005 189.569 217.841 188.895C217.312 184.16 217.348 183.996 212.589 183.523C209.453 183.296 206.304 183.296 203.168 183.523C201.342 183.614 200.077 184.445 200.125 186.725C200.247 192.855 200.21 198.991 200.125 205.121C200.125 206.903 200.703 207.667 202.56 207.643C208.037 207.57 213.514 207.679 218.992 207.595C222.789 207.54 224.615 205.539 225.078 201.368C225.271 200.224 225.531 199.092 225.857 197.978L226.885 198.148Z" fill="white"/>
<path d="M182.549 117.651C182.549 124.684 177.011 130.924 170.706 130.99C164.9 131.015 158.814 124.351 158.814 117.936C158.814 111.266 164.565 105.027 170.7 105.039C176.834 105.051 182.549 111.206 182.549 117.651Z" fill="white"/>
<path d="M160.92 155.51H181.685L181.868 156.517C180.65 156.863 179.47 157.517 178.289 157.487C175.489 157.408 174.583 158.603 174.601 161.277C174.686 173.432 174.686 185.591 174.601 197.754C174.57 203.684 174.644 209.674 172.167 215.265C170.061 220.018 166.793 223.753 161.82 225.712C158.674 226.925 158.169 226.536 158.169 223.117V221.073C159.958 221.237 161.577 221.37 163.196 221.534C166.026 221.825 167.675 219.903 167.766 217.775C168.089 210.129 167.925 202.465 167.937 194.807C167.937 193.497 167.937 192.194 167.937 190.89C167.937 181.037 167.882 171.19 167.973 161.343C167.973 158.73 167.213 157.396 164.352 157.487C163.184 157.53 161.991 156.881 160.804 156.578L160.92 155.51Z" fill="white"/>
</g>
<defs>
<filter id="filter0_d_116_5739" x="0" y="0" width="436" height="340" filterUnits="userSpaceOnUse" color-interpolation-filters="sRGB">
<feFlood flood-opacity="0" result="BackgroundImageFix"/>
<feColorMatrix in="SourceAlpha" type="matrix" values="0 0 0 0 0 0 0 0 0 0 0 0 0 0 0 0 0 0 127 0" result="hardAlpha"/>
<feOffset dx="4" dy="4"/>
<feGaussianBlur stdDeviation="9.5"/>
<feComposite in2="hardAlpha" operator="out"/>
<feColorMatrix type="matrix" values="0 0 0 0 0 0 0 0 0 0 0 0 0 0 0 0 0 0 0.15 0"/>
<feBlend mode="normal" in2="BackgroundImageFix" result="effect1_dropShadow_116_5739"/>
<feBlend mode="normal" in="SourceGraphic" in2="effect1_dropShadow_116_5739" result="shape"/>
</filter>
<radialGradient id="paint0_radial_116_5739" cx="0" cy="0" r="1" gradientUnits="userSpaceOnUse" gradientTransform="translate(213.85 166) rotate(91.5766) scale(441.046 581.347)">
<stop stop-color="#1614D1"/>
<stop offset="0.359375" stop-color="#1F2656"/>
</radialGradient>
<clipPath id="clip0_116_5739">
<rect width="255" height="134" fill="white" transform="translate(87 99)"/>
</clipPath>
</defs>
</svg>
