<svg width="137" height="137" viewBox="0 0 137 137" fill="none" xmlns="http://www.w3.org/2000/svg">
<g clip-path="url(#clip0_157_6105)">
<path d="M72.9058 0.565989C71.8119 0.565989 71.6815 0.696612 71.6308 1.90117L71.4424 6.92256C71.3772 8.71488 71.0657 9.73077 69.9936 10.6015C69.5934 10.9552 69.1213 11.2176 68.61 11.3707L68.4434 10.9426C68.8147 10.7944 69.1424 10.5542 69.3958 10.2446C69.6492 9.93489 69.82 9.56585 69.8922 9.17203C70.0529 8.2835 70.1377 7.38288 70.1457 6.47993L70.3268 1.85037C70.3703 0.645812 70.2399 0.544223 69.1026 0.399096V-0.0217743L72.9203 0.123362L72.9058 0.565989Z" fill="url(#paint0_radial_157_6105)"/>
<path d="M79.9329 9.81784C79.5528 9.81649 79.173 9.83831 78.7956 9.88316L77.7017 10.0138L77.6148 9.92669L77.7524 8.93983C77.3997 9.15286 77.0344 9.34429 76.6585 9.51307C76.2982 9.68628 75.8971 9.75658 75.4995 9.71625C74.5143 9.57838 73.7971 8.88903 73.9999 7.39422L74.3549 4.75291C74.4563 4.02727 74.3549 3.91117 74.0072 3.78056L73.6377 3.63543L73.6884 3.30164C73.9709 3.30164 74.3549 3.33792 74.7605 3.35244C75.1662 3.36695 75.5864 3.35244 75.8399 3.35244C75.7457 3.7733 75.6516 4.43363 75.5284 5.35519L75.2749 7.22007C75.1228 8.38109 75.6589 8.81647 76.2819 8.90354C76.8265 8.96625 77.3743 8.81543 77.8104 8.48267L78.245 5.28988C78.3464 4.52796 78.245 4.42637 77.7886 4.2885L77.3033 4.13612L77.3467 3.80233C77.792 3.84919 78.2392 3.87341 78.6869 3.87489C79.1071 3.87489 79.4548 3.87489 79.6794 3.87489L79.0636 8.43914C78.9622 9.16477 79.0636 9.27362 79.6069 9.38247L79.9836 9.45502L79.9329 9.81784Z" fill="url(#paint1_radial_157_6105)"/>
<path d="M84.3299 11.3272L84.4313 10.9644C85.2354 11.095 85.3585 11.0151 85.6121 10.0573L86.2061 7.8804C86.4669 6.93708 86.2061 6.26949 85.402 6.04454C84.8463 5.95038 84.2752 6.04489 83.7793 6.31304L82.939 9.44053C82.6854 10.3621 82.7434 10.4346 83.5185 10.7322L83.4171 11.095L80.3745 10.2677L80.4759 9.91218C81.4177 10.0428 81.5119 9.99926 81.7509 9.09948L82.4754 6.37834C82.7072 5.50032 82.6347 5.4205 81.9465 5.10122L82.0407 4.76018C82.763 4.83849 83.4916 4.83849 84.2139 4.76018L83.9242 5.84863C84.2502 5.71802 84.6052 5.5874 85.0181 5.44953C85.4129 5.29657 85.8445 5.26622 86.2568 5.36245C87.3435 5.65996 87.8289 6.61054 87.4666 7.95297L86.7857 10.4709C86.5394 11.3925 86.6118 11.4505 87.3725 11.7698L87.2783 12.1326L84.3299 11.3272Z" fill="url(#paint2_radial_157_6105)"/>
<path d="M87.9375 12.4519L88.0679 12.1036C88.93 12.3358 89.0531 12.2923 89.4008 11.378L90.4006 8.75118C90.7121 7.92395 90.6903 7.84412 89.9586 7.416L90.0746 7.10398C90.789 7.25949 91.5169 7.34454 92.2478 7.35795L90.5527 11.8133C90.2122 12.7204 90.2702 12.822 91.0815 13.2646L90.9511 13.6129L87.9375 12.4519ZM91.5596 5.05043C91.6328 4.85616 91.7799 4.69891 91.9687 4.6132C92.1575 4.52749 92.3725 4.52032 92.5666 4.59328C92.6636 4.62627 92.7526 4.67952 92.8276 4.74951C92.9026 4.81949 92.9619 4.90462 93.0016 4.99927C93.0413 5.09391 93.0605 5.19593 93.0579 5.29856C93.0554 5.4012 93.0311 5.50212 92.9868 5.59466C92.9124 5.78216 92.7674 5.93288 92.5831 6.01432C92.3988 6.09576 92.1899 6.10141 92.0015 6.03004C91.8144 5.95669 91.6627 5.81404 91.5777 5.63167C91.4927 5.4493 91.4811 5.24118 91.5451 5.05043H91.5596Z" fill="url(#paint3_radial_157_6105)"/>
<path d="M97.297 9.63643C97.6689 9.81245 98.002 10.061 98.2768 10.3675C98.5517 10.674 98.7627 11.0324 98.8976 11.4215C99.0325 11.8107 99.0886 12.223 99.0626 12.6341C99.0365 13.0453 98.9288 13.4471 98.7459 13.8161C98.5748 14.2149 98.3241 14.5743 98.0091 14.8723C97.694 15.1703 97.3214 15.4004 96.9142 15.5486C96.5069 15.6969 96.0737 15.7599 95.6412 15.734C95.2087 15.7081 94.786 15.5938 94.3993 15.398C94.019 15.2302 93.6763 14.9871 93.392 14.6834C93.1077 14.3797 92.8876 14.0216 92.7449 13.6306C92.6021 13.2396 92.5397 12.8237 92.5613 12.408C92.583 11.9922 92.6882 11.5851 92.8708 11.2111C93.2387 10.4248 93.9028 9.81665 94.7177 9.52011C95.5325 9.22357 96.4314 9.26279 97.2174 9.62918L97.297 9.63643ZM96.9276 9.97023C96.2032 9.60741 95.1383 10.0138 94.4356 11.4215C93.6532 13.0106 93.7691 14.5127 94.7978 15.0497C95.5222 15.4125 96.435 15.2383 97.3043 13.4823C98.0287 11.9802 98.0287 10.5362 96.9421 10.0065L96.9276 9.97023Z" fill="url(#paint4_radial_157_6105)"/>
<path d="M102.434 14.2587C103.23 13.8596 104.122 13.5331 104.679 13.8959C104.863 13.9949 105.002 14.1609 105.066 14.3595C105.131 14.5582 105.117 14.7741 105.027 14.9626C104.94 15.0974 104.815 15.2041 104.669 15.2697C104.522 15.3354 104.36 15.3572 104.201 15.3327C104.134 15.3271 104.069 15.3023 104.015 15.2611C103.961 15.22 103.92 15.1643 103.897 15.1005C103.878 14.9835 103.836 14.8716 103.772 14.7718C103.709 14.6719 103.626 14.5862 103.528 14.52C103.223 14.3313 102.636 14.4474 101.984 14.9118L100.652 17.0234C100.166 17.7998 100.173 17.9087 101.064 18.5763L100.869 18.8883L97.9712 17.0742L98.174 16.7622C98.9419 17.1468 99.094 17.1395 99.5794 16.3631L101.13 13.9177C101.601 13.1921 101.564 13.076 100.956 12.5535L101.13 12.285C101.795 12.5808 102.493 12.7952 103.209 12.9236L102.376 14.2442L102.434 14.2587Z" fill="url(#paint5_radial_157_6105)"/>
<path d="M112.633 25.6149C112.213 25.9342 111.141 26.6961 110.743 26.9501L105.556 22.2117L105.824 21.9142C106.838 22.7124 107.019 22.6979 107.794 21.8561L111.489 17.8143C112.351 16.8638 112.286 16.7549 111.532 15.935L111.815 15.6229L116.589 19.9767C116.357 20.2597 115.777 20.9854 115.292 21.6022L114.93 21.3482C115.152 20.9728 115.311 20.5634 115.401 20.1364C115.451 19.7663 115.227 19.4107 114.502 18.7649L113.72 18.0393C113.372 17.7273 113.329 17.7345 113.046 18.0393L110.953 20.3904L111.916 21.2684C112.858 22.1391 113.01 22.1174 113.778 21.5441L114.097 21.8344L112.249 23.8589L111.931 23.5686C112.474 22.6761 112.445 22.5455 111.525 21.7038L110.561 20.8185L108.823 22.7124C108.381 23.1986 108.229 23.4888 108.308 23.7936C108.548 24.2273 108.877 24.6055 109.272 24.9038C110.04 25.6294 110.424 25.8254 110.909 25.7746C111.416 25.6872 111.905 25.5181 112.358 25.2739L112.633 25.6149Z" fill="url(#paint6_radial_157_6105)"/>
<path d="M114.169 30.9121L114.452 30.6726C115.038 31.2459 115.176 31.2459 115.944 30.6073L117.69 29.156C118.414 28.532 118.632 27.8571 118.074 27.1896C117.685 26.7928 117.175 26.5374 116.625 26.4639L114.147 28.5392C113.423 29.1488 113.423 29.2649 113.887 29.9325L113.597 30.1719L111.576 27.7483L111.865 27.5088C112.59 28.1619 112.655 28.1764 113.372 27.5741L115.546 25.7746C116.27 25.1941 116.226 25.0489 115.85 24.4249L116.118 24.1927C116.653 24.6719 117.241 25.0882 117.871 25.4335L117.009 26.1592C117.357 26.239 117.733 26.3333 118.132 26.4639C118.546 26.5605 118.921 26.7836 119.204 27.1025C119.928 27.966 119.776 29.0254 118.711 29.918L116.712 31.5942C115.987 32.2037 115.987 32.3198 116.451 32.9946L116.169 33.2341L114.169 30.9121Z" fill="url(#paint7_radial_157_6105)"/>
<path d="M118.001 36.0859C117.806 36.0002 117.636 35.8651 117.508 35.694C116.972 34.9176 117.117 34.1774 118.052 33.5171L121.362 31.2531L120.826 30.4549L120.92 30.3098L121.485 30.3969L121.848 30.9266L122.681 30.3533L124.072 30.6654L124.151 30.8468L122.543 32.0005L123.434 33.3139C123.416 33.3664 123.388 33.4147 123.351 33.4561C123.315 33.4974 123.27 33.5309 123.22 33.5546C123.17 33.5783 123.116 33.5917 123.06 33.5939C123.005 33.5962 122.95 33.5874 122.898 33.5679L122.058 32.3343L119.16 34.3153C118.233 34.9539 118.349 35.4618 118.544 35.7666C118.726 36.0059 118.959 36.2018 119.225 36.3398L118.979 36.6591L118.001 36.0859Z" fill="url(#paint8_radial_157_6105)"/>
<path d="M124.101 37.08C124.999 37.08 125.934 37.2469 126.274 37.8056C126.388 37.9804 126.431 38.1924 126.393 38.3978C126.356 38.6031 126.24 38.786 126.072 38.9086C125.931 38.9867 125.771 39.0228 125.61 39.0125C125.45 39.0022 125.296 38.946 125.166 38.8505C125.11 38.8117 125.066 38.7577 125.039 38.6947C125.012 38.6318 125.003 38.5626 125.014 38.495C125.053 38.3836 125.068 38.2653 125.058 38.1477C125.048 38.0301 125.013 37.916 124.956 37.8129C124.782 37.5009 124.231 37.3267 123.413 37.4283L121.24 38.6546C120.443 39.1045 120.407 39.2061 120.87 40.2147L120.551 40.3961L118.885 37.4428L119.204 37.2614C119.704 37.987 119.841 38.0306 120.653 37.5807L123.174 36.1294C123.942 35.6868 123.956 35.5924 123.666 34.845L123.942 34.6926C124.389 35.2658 124.902 35.7845 125.47 36.2382L124.087 37.08H124.101Z" fill="url(#paint9_radial_157_6105)"/>
<path d="M124.68 46.2956C124.208 46.2051 123.762 46.0129 123.371 45.7322C122.981 45.4515 122.656 45.0891 122.42 44.6701C122.267 44.3217 122.186 43.9457 122.182 43.5649C122.179 43.1841 122.253 42.8066 122.4 42.4555C122.547 42.1044 122.764 41.787 123.038 41.5227C123.312 41.2585 123.636 41.0529 123.992 40.9186C124.794 40.5496 125.705 40.5003 126.542 40.7807C126.938 40.8917 127.307 41.0838 127.625 41.3448C127.943 41.6059 128.203 41.9302 128.389 42.2973C128.622 42.8266 128.64 43.4261 128.438 43.9682C128.237 44.5103 127.832 44.9522 127.31 45.1998C127.267 45.2299 127.218 45.2506 127.167 45.2607C127.115 45.2708 127.062 45.27 127.011 45.2584C126.96 45.2468 126.912 45.2246 126.87 45.1933C126.828 45.162 126.792 45.1222 126.767 45.0765C126.629 44.8515 125.774 43.2841 125.05 41.8111C123.412 42.573 123.144 43.8502 123.55 44.7499C123.808 45.3119 124.277 45.7497 124.854 45.969L124.68 46.2956ZM127.774 42.203C127.527 41.6442 126.781 41.3104 125.636 41.6007C125.941 42.29 126.252 42.9794 126.6 43.6978C126.709 43.9227 126.81 43.9663 126.977 43.8937C127.141 43.8392 127.293 43.7521 127.423 43.6375C127.553 43.5229 127.659 43.3832 127.734 43.2267C127.809 43.0703 127.852 42.9002 127.86 42.7268C127.868 42.5534 127.841 42.3802 127.781 42.2175L127.774 42.203Z" fill="url(#paint10_radial_157_6105)"/>
<path d="M130.614 48.9151C130.81 49.0862 130.962 49.3029 131.055 49.5464C131.164 49.8749 131.203 50.2221 131.172 50.5666C131.14 50.911 131.038 51.2453 130.873 51.5488C130.707 51.8522 130.481 52.1183 130.208 52.3306C129.936 52.5428 129.622 52.6967 129.288 52.7827C127.31 53.4068 125.514 52.1732 124.637 50.526C124.541 50.194 124.514 49.8458 124.557 49.5028L122.797 50.0543C121.826 50.3591 121.776 50.4897 122.007 51.5636L121.645 51.6798L120.602 48.3564L120.972 48.2475C121.326 49.0965 121.457 49.1836 122.319 48.9151L128.332 47.0212C129.165 46.7527 129.179 46.6729 129.056 45.8239L129.389 45.7223C129.743 46.3828 130.152 47.0116 130.614 47.6017L129.556 47.9355L130.614 48.9151ZM125.543 49.1981C125.33 49.6516 125.286 50.1664 125.419 50.6494C125.774 51.7814 127.006 52.1659 128.397 51.7306C129.788 51.2952 130.36 50.1704 130.063 49.2199C129.857 48.7641 129.528 48.3747 129.114 48.0951L125.543 49.1981Z" fill="url(#paint11_radial_157_6105)"/>
<path d="M131.084 55.8885C131.925 56.1932 132.772 56.6141 132.903 57.2672C132.959 57.4692 132.935 57.6854 132.835 57.8697C132.735 58.054 132.567 58.1919 132.367 58.254C132.21 58.2859 132.047 58.2705 131.899 58.2098C131.75 58.1491 131.623 58.0458 131.534 57.913C131.49 57.8615 131.462 57.7981 131.454 57.7309C131.447 57.6638 131.459 57.5958 131.49 57.5357C131.563 57.4423 131.615 57.3344 131.642 57.2192C131.67 57.104 131.672 56.9843 131.649 56.8681C131.577 56.5125 131.092 56.1424 130.302 56.0118L127.861 56.5052C126.962 56.6867 126.89 56.7665 127.02 57.8767L126.658 57.9493L125.992 54.6186L126.354 54.546C126.607 55.3733 126.716 55.4749 127.614 55.2717L130.454 54.7057C131.323 54.5315 131.367 54.4445 131.323 53.639L131.628 53.5809C131.879 54.2666 132.207 54.9215 132.606 55.5329L131.077 55.8377L131.084 55.8885Z" fill="url(#paint12_radial_157_6105)"/>
<path d="M126.999 60.0101L127.368 59.9665C127.564 60.8373 127.658 60.9316 128.628 60.8155L131.418 60.4817C132.287 60.3801 132.345 60.3221 132.388 59.4731L132.721 59.4296C132.91 60.1372 133.172 60.8231 133.504 61.4758L128.773 62.0418C127.81 62.1579 127.745 62.2595 127.752 63.1738L127.383 63.2174L126.999 60.0101ZM135.228 59.7779C135.333 59.7658 135.439 59.7753 135.541 59.8057C135.642 59.836 135.736 59.8866 135.818 59.9544C135.899 60.0223 135.966 60.1059 136.014 60.2003C136.062 60.2946 136.09 60.3978 136.097 60.5035C136.113 60.6045 136.107 60.7076 136.079 60.8061C136.052 60.9046 136.005 60.9963 135.94 61.075C135.875 61.1538 135.794 61.2179 135.702 61.2633C135.611 61.3086 135.511 61.334 135.409 61.338C135.309 61.3544 135.206 61.3496 135.108 61.3237C135.01 61.2979 134.918 61.2517 134.839 61.188C134.76 61.1244 134.695 61.0448 134.648 60.9544C134.602 60.8639 134.575 60.7647 134.569 60.6631C134.555 60.5596 134.561 60.4542 134.588 60.3532C134.615 60.2522 134.662 60.1577 134.727 60.0752C134.791 59.9927 134.871 59.9239 134.962 59.8728C135.053 59.8218 135.153 59.7895 135.257 59.7779H135.228Z" fill="url(#paint13_radial_157_6105)"/>
<path d="M131.997 67.4841C132.808 67.1721 133.366 66.6496 133.337 65.953C133.334 65.8327 133.306 65.7144 133.254 65.6056C133.203 65.4968 133.13 65.3998 133.04 65.3207C132.949 65.2416 132.843 65.1821 132.728 65.1461C132.614 65.1101 132.493 65.0982 132.374 65.1113C131.801 65.1113 131.49 65.6845 131.272 66.3376C130.889 67.4333 130.41 68.1952 129.432 68.2315C128.121 68.2896 127.426 67.1068 127.375 65.9385C127.335 65.3554 127.471 64.7737 127.766 64.2695C128.317 64.0929 128.885 63.9785 129.461 63.9285L129.534 64.3203C128.614 64.6251 127.81 65.2999 127.846 66.1417C127.849 66.2681 127.877 66.3927 127.928 66.5083C127.979 66.624 128.052 66.7283 128.144 66.8153C128.236 66.9023 128.343 66.9703 128.461 67.0154C128.579 67.0604 128.705 67.0816 128.831 67.0778C129.403 67.0778 129.7 66.6642 129.998 65.9313C130.331 65.0895 130.773 64.0881 131.874 64.0373C132.975 63.9865 133.743 64.821 133.801 66.1634C133.826 66.6029 133.759 67.0427 133.605 67.4551C133.123 67.6273 132.626 67.7561 132.12 67.8397L131.997 67.4841Z" fill="url(#paint14_radial_157_6105)"/>
<path d="M128.6 74.5954C128.22 74.3015 127.91 73.9274 127.69 73.4997C127.471 73.0721 127.349 72.6013 127.332 72.1209C127.353 71.7404 127.452 71.3683 127.622 71.0274C127.792 70.6865 128.03 70.3841 128.321 70.1387C128.612 69.8933 128.95 69.7102 129.315 69.6006C129.679 69.491 130.062 69.4572 130.44 69.5014C131.32 69.5428 132.152 69.9131 132.772 70.539C133.071 70.8177 133.309 71.1546 133.472 71.529C133.635 71.9034 133.72 72.3074 133.721 72.7159C133.691 73.2883 133.437 73.8257 133.014 74.2116C132.591 74.5974 132.033 74.8005 131.461 74.7768C131.193 74.7768 131.07 74.6752 131.027 74.4139C130.983 74.1527 130.961 72.3749 131.027 70.7277C129.223 70.6551 128.404 71.671 128.346 72.6579C128.323 73.2769 128.542 73.8805 128.955 74.3414L128.6 74.5954ZM133.222 72.3749C133.222 71.7654 132.743 71.1268 131.592 70.8583C131.548 71.5839 131.505 72.3677 131.49 73.1659C131.49 73.4126 131.563 73.5069 131.744 73.5141C132.085 73.5573 132.429 73.463 132.701 73.2521C132.972 73.0412 133.149 72.731 133.193 72.3894L133.222 72.3749Z" fill="url(#paint15_radial_157_6105)"/>
<path d="M127.194 86.9674C126.709 86.7497 125.521 86.1765 125.115 85.9443L126.781 79.1306L127.173 79.2249C126.955 80.502 127.057 80.6762 128.172 80.9229L133.482 82.229C134.728 82.5265 134.794 82.4177 135.148 81.3655L135.554 81.4599L134.018 87.7584L131.975 87.3955L132.026 86.9602C132.462 86.9759 132.898 86.9195 133.316 86.7933C133.663 86.6627 133.845 86.2998 134.084 85.342L134.33 84.3116C134.446 83.8544 134.41 83.8182 134.004 83.7238L130.961 82.9982L130.65 84.2681C130.346 85.5162 130.44 85.6395 131.309 86.0386L131.208 86.4522L128.549 85.8064L128.65 85.3855C129.694 85.4363 129.788 85.3493 130.099 84.1302L130.411 82.8603L127.919 82.2508C127.274 82.0912 126.955 82.0911 126.723 82.3088C126.457 82.7289 126.284 83.2017 126.216 83.6948C125.97 84.7034 125.963 85.1461 126.216 85.5524C126.537 85.9508 126.918 86.2961 127.346 86.5756L127.194 86.9674Z" fill="url(#paint16_radial_157_6105)"/>
<path d="M129.027 99.6152C129.295 98.8896 129.281 98.4833 128.716 98.164C128.01 97.79 127.285 97.4557 126.542 97.1626L121.392 94.9857L121.565 94.5576L130.708 91.5825L127.564 90.2545C126.855 89.9417 126.129 89.668 125.39 89.4346C124.666 89.2169 124.405 89.4346 123.942 90.3271L123.572 90.1747L124.898 87.011L125.267 87.1706C124.999 87.947 125.028 88.3534 125.644 88.6872C126.345 89.0782 127.071 89.4224 127.817 89.7176L130.585 90.8786C131.526 91.2704 131.613 91.2559 132.033 91.1471C132.454 91.0382 132.685 90.7698 132.99 90.1747L133.374 90.3344L132.526 92.3661L123.833 95.3195L126.839 96.5821C127.547 96.8956 128.273 97.1669 129.013 97.3948C129.643 97.5907 129.94 97.3513 130.382 96.4297L130.766 96.5894L129.454 99.7386L129.027 99.6152Z" fill="url(#paint17_radial_157_6105)"/>
<path d="M123.876 104.68C124.774 104.934 125.868 105.087 126.491 104.056C126.614 103.888 126.7 103.696 126.743 103.492C126.785 103.288 126.783 103.078 126.737 102.875C126.691 102.672 126.602 102.481 126.476 102.315C126.35 102.15 126.189 102.014 126.006 101.916C125.166 101.408 124.419 101.72 123.333 102.431C122.246 103.142 120.978 103.882 119.667 103.106C118.356 102.329 118.023 100.609 119.03 98.9404C119.281 98.5211 119.599 98.146 119.971 97.8302C120.164 97.6639 120.37 97.5134 120.587 97.3803C121.303 97.6178 122.007 97.8914 122.695 98.2003L122.579 98.6284C121.696 98.3744 120.087 98.2148 119.327 99.4701C119.196 99.6493 119.106 99.8549 119.063 100.073C119.019 100.29 119.024 100.515 119.077 100.73C119.129 100.946 119.228 101.147 119.366 101.321C119.504 101.494 119.679 101.635 119.877 101.734C120.747 102.257 121.551 101.85 122.601 101.219C123.652 100.588 124.84 99.8112 126.158 100.609C127.353 101.335 127.759 102.895 126.796 104.492C126.456 105.036 126.036 105.525 125.549 105.943C125.093 105.732 124.572 105.493 123.724 105.13L123.876 104.68Z" fill="url(#paint18_radial_157_6105)"/>
<path d="M113.524 107.031L113.836 107.285C113.372 108.054 113.394 108.229 113.952 108.439C114.509 108.649 115.205 108.874 116.023 109.165L117.958 106.785C117.617 106.197 117.313 105.703 117.001 105.21C116.531 104.433 116.335 104.419 115.553 105.21L115.241 104.956L117.233 102.511L117.545 102.765C117.067 103.57 117.016 103.788 117.661 104.941L121.413 111.878L121.196 112.343C118.697 111.494 116.19 110.63 113.691 109.81C112.445 109.39 112.199 109.448 111.518 110.108L111.206 109.854L113.524 107.031ZM120.131 110.609C119.522 109.52 118.878 108.432 118.276 107.372L116.625 109.404L120.131 110.609Z" fill="url(#paint19_radial_157_6105)"/>
<path d="M103.542 116.406L103.788 116.726C103.165 117.364 103.143 117.538 103.636 117.872C104.128 118.206 104.766 118.598 105.497 119.033L107.924 117.154C107.721 116.501 107.54 115.957 107.345 115.405C107.069 114.542 106.874 114.484 105.954 115.057L105.708 114.738L108.2 112.807L108.446 113.127C107.801 113.801 107.721 114.005 108.062 115.303L110.141 122.923L109.822 123.322C107.584 121.921 105.338 120.514 103.092 119.142C101.977 118.453 101.723 118.453 100.919 118.939L100.673 118.627L103.542 116.406ZM109.163 121.392C108.823 120.194 108.439 118.975 108.098 117.814L106.026 119.418L109.163 121.392Z" fill="url(#paint20_radial_157_6105)"/>
<path d="M97.7538 127.095C97.7383 126.768 97.8083 126.443 97.9567 126.152L98.6811 125.789C98.2745 125.617 97.9376 125.313 97.7249 124.925C97.0004 123.634 97.7249 122.349 98.8187 121.725C99.0392 121.608 99.2666 121.503 99.4997 121.413C99.5535 121.317 99.5858 121.21 99.5946 121.1C99.6033 120.989 99.5883 120.879 99.5504 120.775C99.42 120.543 99.0578 120.434 98.5073 120.775C98.0726 121.021 97.6669 121.29 97.2395 121.5C96.5151 121.929 95.3125 122.299 94.6171 121.08C93.9217 119.86 94.6895 117.8 96.3412 116.849C97.7394 116.044 98.9419 116.414 99.3476 117.089C99.4255 117.221 99.4731 117.369 99.4868 117.522C99.5006 117.675 99.4802 117.83 99.4272 117.974C99.3041 118.387 99.0505 118.953 98.8912 119.353C99.3268 119.231 99.7922 119.277 100.195 119.483C100.392 119.58 100.551 119.741 100.644 119.94C100.311 120.33 100.079 120.796 99.9706 121.297C100.368 121.246 100.772 121.315 101.131 121.495C101.489 121.674 101.787 121.957 101.984 122.306C102.133 122.593 102.223 122.908 102.249 123.231C102.275 123.553 102.236 123.878 102.135 124.186C102.034 124.493 101.872 124.778 101.66 125.022C101.447 125.266 101.188 125.465 100.898 125.608C100.478 125.843 100.009 125.975 99.5287 125.992C98.9129 126.384 98.3189 126.827 97.8987 127.146L97.7538 127.095ZM97.5583 120.064C98.1161 119.737 98.3551 119.505 98.471 119.207C98.556 119.019 98.6 118.815 98.6 118.609C98.6 118.402 98.556 118.198 98.471 118.01C98.1088 117.372 97.1236 117.219 96.1673 117.771C95.059 118.409 94.7909 119.338 95.2111 120.071C95.3056 120.265 95.461 120.422 95.6533 120.519C95.8456 120.616 96.0643 120.647 96.276 120.608C96.7218 120.503 97.1459 120.322 97.5293 120.071L97.5583 120.064ZM100.782 125.143C101.275 124.86 101.506 124.105 100.934 123.148C100.362 122.19 99.5721 121.791 98.9057 122.175C98.3768 122.487 98.1813 123.227 98.7391 124.178C99.2969 125.129 100.086 125.542 100.767 125.15L100.782 125.143Z" fill="url(#paint21_radial_157_6105)"/>
<path d="M90.1617 123.721C90.4117 123.627 90.6869 123.627 90.9369 123.721C91.1564 123.799 91.3479 123.94 91.4874 124.127C91.8714 123.561 92.2843 122.828 92.6465 122.676C92.8552 122.582 93.0805 122.529 93.3095 122.522C93.5384 122.515 93.7664 122.554 93.9805 122.635C94.1946 122.717 94.3904 122.84 94.5568 122.998C94.7232 123.155 94.8569 123.344 94.9501 123.554C95.0816 123.854 95.102 124.191 95.0078 124.505C94.9135 124.819 94.7108 125.089 94.4358 125.266C93.8134 125.763 93.2582 126.339 92.7841 126.979L92.8783 127.211C93.284 128.133 93.9142 128.437 94.5372 128.169C94.6405 128.126 94.7338 128.061 94.8111 127.98C94.8884 127.899 94.948 127.803 94.9864 127.697C95.0699 127.357 95.0699 127.001 94.9864 126.66C94.9662 126.556 94.9836 126.449 95.0354 126.357C95.0872 126.265 95.17 126.195 95.2689 126.159C95.4236 126.109 95.5906 126.113 95.743 126.169C95.8954 126.226 96.0244 126.332 96.1093 126.471C96.1962 126.66 96.1092 126.892 95.9209 127.197C95.5012 127.879 94.9611 128.479 94.3272 128.967C93.9455 129.155 93.5116 129.209 93.0956 129.12C92.7853 129.013 92.504 128.836 92.2739 128.601C92.0439 128.367 91.8713 128.082 91.7699 127.77L90.7703 125.462C90.5167 124.889 90.2052 124.802 89.9734 124.904C89.8132 124.984 89.6742 125.101 89.5677 125.245L89.2852 124.962L90.1617 123.721ZM92.5885 126.493C92.7914 126.246 93.2116 125.767 93.4289 125.528C93.8418 125.085 94.0084 124.708 93.8056 124.236C93.7592 124.11 93.6878 123.994 93.5957 123.896C93.5036 123.798 93.3927 123.719 93.2696 123.665C93.1465 123.611 93.0138 123.582 92.8793 123.58C92.7449 123.579 92.6115 123.604 92.4871 123.656C92.1432 123.837 91.8721 124.132 91.7193 124.49L92.5885 126.493Z" fill="url(#paint22_radial_157_6105)"/>
<path d="M82.041 126.928C82.7499 126.578 83.437 126.186 84.0984 125.753L84.3592 126.616L85.0184 125.891C85.2668 125.58 85.5843 125.331 85.9457 125.165C86.6757 124.98 87.4492 125.094 88.0958 125.48C88.7425 125.867 89.2094 126.494 89.3939 127.226C89.616 128.142 89.4733 129.109 88.996 129.922C88.5187 130.734 87.7442 131.329 86.8367 131.58C86.5374 131.664 86.2277 131.706 85.9167 131.703L86.4817 133.59C86.7425 134.46 86.8512 134.468 87.8292 134.243L87.9306 134.591C87.2035 134.909 86.5054 135.291 85.8442 135.73L83.4464 127.792C83.2291 127.066 83.1059 127.023 82.5409 127.139L82.1424 127.218L82.041 126.928ZM85.5907 130.694C85.8147 130.865 86.0761 130.98 86.3533 131.029C86.6305 131.078 86.9155 131.061 87.1844 130.977C87.7567 130.803 88.7492 129.969 88.1624 128.031C87.677 126.428 86.4383 125.999 85.598 126.261C85.1609 126.413 84.7764 126.688 84.4896 127.052L85.5907 130.694Z" fill="url(#paint23_radial_157_6105)"/>
<path d="M81.3384 126.616L81.4108 126.986C80.5633 127.24 80.4763 127.349 80.6864 128.307L81.237 131.064C81.4109 131.928 81.4688 131.979 82.3164 131.957L82.3816 132.283C81.6947 132.53 81.0344 132.846 80.4111 133.227L79.4767 128.546C79.2883 127.603 79.1797 127.545 78.2741 127.618L78.2017 127.255L81.3384 126.616ZM82.215 134.809C82.2556 135.013 82.2136 135.226 82.0983 135.4C81.9829 135.574 81.8035 135.695 81.5992 135.737C81.3984 135.775 81.191 135.731 81.0225 135.615C80.8541 135.5 80.7384 135.322 80.7009 135.121C80.6635 134.919 80.7073 134.712 80.8228 134.543C80.9383 134.374 81.1159 134.258 81.3167 134.221C81.513 134.186 81.7153 134.227 81.8823 134.336C82.0492 134.445 82.1682 134.614 82.215 134.809Z" fill="url(#paint24_radial_157_6105)"/>
<path d="M75.789 132.37C75.4123 133.183 74.9197 133.989 74.2678 134.068C74.0626 134.108 73.8503 134.066 73.6749 133.953C73.4995 133.839 73.3745 133.662 73.326 133.459C73.308 133.299 73.3368 133.137 73.4088 132.992C73.4807 132.848 73.5929 132.728 73.7317 132.646C73.7886 132.608 73.8554 132.588 73.9237 132.588C73.992 132.588 74.0587 132.608 74.1156 132.646C74.2041 132.725 74.3074 132.784 74.4194 132.822C74.5315 132.859 74.6499 132.873 74.7676 132.864C75.1298 132.82 75.492 132.363 75.7239 131.587L75.4341 129.105C75.3254 128.191 75.2457 128.111 74.1374 128.162L74.0939 127.784L77.4625 127.393L77.506 127.763C76.6584 127.944 76.5497 128.046 76.6511 128.96L76.9916 131.863C77.093 132.741 77.1799 132.791 77.9768 132.813L78.013 133.125C77.3109 133.315 76.6346 133.591 75.9991 133.945L75.818 132.392L75.789 132.37Z" fill="url(#paint25_radial_157_6105)"/>
<path d="M59.5401 136.209C60.6412 136.245 60.7717 136.158 60.8876 134.961L61.3657 129.961C61.5395 128.176 61.9018 127.175 63.0174 126.369C63.4435 126.037 63.9385 125.804 64.4662 125.687L64.6111 126.123C64.2335 126.25 63.8945 126.471 63.6258 126.765C63.3571 127.06 63.1677 127.418 63.0753 127.806C62.8604 128.683 62.7199 129.576 62.6552 130.477L62.206 135.099C62.0901 136.296 62.206 136.405 63.3506 136.594L63.3071 137.007L59.5039 136.637L59.5401 136.209Z" fill="url(#paint26_radial_157_6105)"/>
<path d="M53.0859 126.573C53.4119 126.573 53.8103 126.573 54.2232 126.573L55.3243 126.5L55.404 126.594L55.2157 127.574C55.58 127.381 55.9549 127.209 56.3385 127.059C56.712 126.915 57.1162 126.87 57.5121 126.928C58.4828 127.124 59.1565 127.857 58.8668 129.33L58.3597 131.95C58.2075 132.675 58.309 132.791 58.6494 132.944L59.0044 133.111L58.9464 133.444C58.6567 133.394 58.2727 133.372 57.8743 133.328C57.4759 133.285 57.0485 133.285 56.7949 133.277C56.9181 132.857 57.0412 132.204 57.2223 131.289L57.5846 129.439C57.8091 128.3 57.2948 127.828 56.679 127.705C56.1372 127.608 55.5791 127.725 55.1215 128.031L54.5058 131.195C54.3609 131.921 54.4623 132.058 54.8969 132.218L55.3823 132.399L55.3171 132.733C54.8761 132.658 54.431 132.61 53.9842 132.588C53.6551 132.545 53.3235 132.526 52.9917 132.53L53.8755 128.002C54.0131 127.276 53.9189 127.175 53.3829 127.03L53.0134 126.935L53.0859 126.573Z" fill="url(#paint27_radial_157_6105)"/>
<path d="M48.7607 124.788L48.6375 125.143C47.8407 124.969 47.7175 125.042 47.3988 125.978L46.6743 128.155C46.3628 129.076 46.5439 129.751 47.3988 130.034C47.9472 130.154 48.5199 130.09 49.0287 129.853L50.0574 126.79C50.3617 125.883 50.311 125.803 49.5576 125.462L49.6735 125.107L52.6653 126.108L52.5422 126.464C51.6149 126.275 51.5207 126.311 51.2165 127.189L50.3255 129.86C50.0357 130.723 50.1081 130.803 50.7746 131.166L50.6587 131.507C49.9419 131.378 49.2127 131.331 48.4854 131.369L48.8404 130.302C48.5072 130.411 48.1159 130.52 47.7248 130.629C47.319 130.756 46.8845 130.756 46.4788 130.629C45.4139 130.273 44.9864 129.294 45.4283 127.973L46.2542 125.499C46.5585 124.592 46.4932 124.526 45.7471 124.171L45.863 123.815L48.7607 124.788Z" fill="url(#paint28_radial_157_6105)"/>
<path d="M41.2199 130.643C41.1783 130.738 41.1184 130.823 41.0438 130.895C40.9691 130.966 40.8811 131.022 40.7848 131.059C40.6885 131.096 40.5859 131.114 40.4828 131.111C40.3796 131.108 40.2781 131.085 40.184 131.043C40.0185 130.944 39.8955 130.788 39.8387 130.604C39.782 130.42 39.7956 130.221 39.8768 130.047C39.9581 129.872 40.1013 129.734 40.2785 129.659C40.4558 129.584 40.6544 129.578 40.8359 129.642C41.015 129.729 41.1544 129.881 41.2258 130.067C41.2971 130.253 41.295 130.459 41.2199 130.643ZM45.2622 123.467L45.11 123.808C44.2624 123.518 44.132 123.554 43.7336 124.446L42.5818 127.008C42.2196 127.813 42.2341 127.893 42.944 128.372L42.8064 128.677C42.0977 128.472 41.3691 128.343 40.6331 128.292L42.589 123.939C42.9802 123.061 42.9223 122.952 42.1399 122.487L42.292 122.146L45.2622 123.467Z" fill="url(#paint29_radial_157_6105)"/>
<path d="M35.7287 125.716C35.3674 125.519 35.0491 125.251 34.7925 124.929C34.5358 124.607 34.3459 124.236 34.2339 123.84C34.1219 123.443 34.0901 123.028 34.1403 122.619C34.1904 122.21 34.3216 121.815 34.5261 121.457C34.7202 121.074 34.9896 120.735 35.3182 120.459C35.6468 120.184 36.0277 119.978 36.4379 119.853C36.8482 119.729 37.2792 119.69 37.7052 119.737C38.1311 119.784 38.543 119.918 38.9161 120.129C39.2858 120.319 39.6134 120.581 39.8794 120.901C40.1453 121.22 40.3441 121.591 40.4638 121.989C40.5835 122.387 40.6217 122.806 40.5761 123.219C40.5305 123.633 40.402 124.033 40.1984 124.396C39.9934 124.777 39.7151 125.115 39.3795 125.388C39.0439 125.662 38.6576 125.866 38.2429 125.989C37.8281 126.113 37.3931 126.153 36.9629 126.107C36.5326 126.062 36.1157 125.931 35.7359 125.724L35.7287 125.716ZM36.1199 125.397C36.8443 125.803 37.9092 125.462 38.6916 124.091C39.5681 122.553 39.5391 121.051 38.5467 120.463C37.8222 120.056 36.9167 120.172 35.946 121.878C35.1201 123.329 35.0694 124.78 36.1054 125.375L36.1199 125.397Z" fill="url(#paint30_radial_157_6105)"/>
<path d="M30.8894 120.811C30.0708 121.159 29.158 121.421 28.622 121.036C28.4456 120.926 28.3184 120.752 28.2671 120.551C28.2158 120.349 28.2443 120.136 28.3467 119.955C28.4413 119.826 28.5706 119.727 28.7195 119.669C28.8683 119.611 29.0305 119.597 29.187 119.628C29.2543 119.639 29.3171 119.669 29.3684 119.714C29.4197 119.758 29.4572 119.817 29.4768 119.882C29.4869 119.999 29.5218 120.113 29.5793 120.216C29.6368 120.318 29.7154 120.408 29.81 120.477C30.107 120.688 30.6938 120.608 31.3748 120.18L32.8236 118.148C33.3524 117.422 33.3525 117.299 32.4976 116.581L32.715 116.276L35.475 118.257L35.2577 118.554C34.5333 118.126 34.3594 118.126 33.8088 118.866L32.1426 121.254C31.6283 121.979 31.6573 122.066 32.2368 122.625L32.0485 122.879C31.4011 122.548 30.7181 122.293 30.0128 122.117L30.9184 120.855L30.8894 120.811Z" fill="url(#paint31_radial_157_6105)"/>
<path d="M21.3416 108.845C21.7835 108.548 22.9064 107.851 23.3121 107.626L28.1947 112.662L27.9122 112.945C26.9414 112.082 26.7604 112.089 25.9345 112.887L22.0081 116.704C21.0953 117.597 21.1533 117.713 21.856 118.576L21.5517 118.874L17.0386 114.215C17.2849 113.954 17.9151 113.264 18.4367 112.677L18.7844 112.952C18.5336 113.311 18.3495 113.711 18.2411 114.135C18.1687 114.498 18.3715 114.861 19.0525 115.55L19.7769 116.312C20.1029 116.653 20.1536 116.646 20.4506 116.356L22.7036 114.179L21.7908 113.243C20.8997 112.321 20.7476 112.328 19.9435 112.858L19.6465 112.553L21.6097 110.638L21.9139 110.95C21.3199 111.806 21.3344 111.937 22.211 112.836L23.1165 113.772L24.9638 111.98C25.4346 111.523 25.6085 111.254 25.5433 110.935C25.3296 110.487 25.0234 110.088 24.645 109.767C23.9206 109.041 23.5511 108.78 23.0658 108.802C22.5645 108.864 22.0758 109.004 21.6169 109.215L21.3416 108.845Z" fill="url(#paint32_radial_157_6105)"/>
<path d="M20.139 103.483L19.842 103.708C19.2914 103.106 19.1175 103.098 18.3496 103.708L16.5241 105.058C15.7417 105.638 15.5099 106.306 16.0242 107.002C16.4067 107.419 16.9161 107.697 17.4731 107.793L20.0593 105.87C20.8272 105.297 20.8344 105.203 20.4142 104.492L20.7113 104.267L22.5875 106.806L22.2833 107.024C21.6313 106.335 21.5588 106.298 20.7837 106.872L18.5235 108.541C17.7991 109.085 17.7991 109.194 18.1396 109.876L17.857 110.086C17.3521 109.576 16.7906 109.126 16.1836 108.744L17.0892 108.076C16.7487 107.967 16.3647 107.851 15.9808 107.706C15.5723 107.574 15.2136 107.321 14.9521 106.98C14.2856 106.073 14.4957 105.028 15.6041 104.201L17.6977 102.648C18.4655 102.082 18.4221 101.988 18.0382 101.262L18.3424 101.045L20.139 103.483Z" fill="url(#paint33_radial_157_6105)"/>
<path d="M16.6255 98.0987C16.8141 98.1987 16.9757 98.3432 17.0964 98.5196C17.5817 99.3323 17.3862 100.058 16.4227 100.638L12.9744 102.699L13.4743 103.526L13.3656 103.664L12.8078 103.548L12.4746 102.997L11.6052 103.519L10.2361 103.12L10.1709 102.939L11.8443 101.937L11.033 100.573C11.0542 100.522 11.0855 100.476 11.1249 100.437C11.1643 100.398 11.211 100.368 11.2624 100.348C11.3137 100.328 11.3685 100.318 11.4237 100.319C11.4789 100.32 11.5332 100.333 11.5835 100.355L12.3442 101.64L15.3722 99.8257C16.343 99.2452 16.256 98.73 16.0967 98.4252C15.9276 98.1764 15.7079 97.9662 15.4519 97.8084L15.7127 97.5109L16.6255 98.0987Z" fill="url(#paint34_radial_157_6105)"/>
<path d="M10.5765 96.749C9.68546 96.6619 8.76542 96.466 8.47565 95.871C8.36977 95.6911 8.33782 95.477 8.38647 95.2739C8.43512 95.0709 8.56058 94.8947 8.73643 94.7825C8.8818 94.7148 9.04337 94.6897 9.20237 94.7103C9.36137 94.7308 9.51132 94.7961 9.63475 94.8986C9.69129 94.9381 9.73419 94.9943 9.75754 95.0593C9.78089 95.1242 9.78355 95.1949 9.76515 95.2614C9.71972 95.3694 9.6963 95.4853 9.6963 95.6025C9.6963 95.7196 9.71972 95.8356 9.76515 95.9435C9.92452 96.2701 10.4896 96.4805 11.2864 96.4225L13.5249 95.3267C14.3507 94.9204 14.4014 94.8261 13.9885 93.7884L14.3217 93.6288L15.8141 96.6764L15.4808 96.8361C15.0244 96.1104 14.8941 96.0306 14.0682 96.437L11.4675 97.7068C10.6707 98.0987 10.6562 98.193 10.9025 98.9549L10.62 99.1001C10.2041 98.4975 9.71766 97.9469 9.17111 97.4601L10.5692 96.7708L10.5765 96.749Z" fill="url(#paint35_radial_157_6105)"/>
<path d="M10.5478 87.5044C11.016 87.6182 11.4535 87.8339 11.8291 88.1362C12.2047 88.4384 12.5092 88.8198 12.7211 89.2532C12.8499 89.6086 12.9057 89.9865 12.8848 90.364C12.864 90.7416 12.7671 91.111 12.5999 91.45C12.4327 91.789 12.1987 92.0906 11.912 92.3366C11.6253 92.5826 11.2919 92.7679 10.9318 92.8814C10.1092 93.201 9.19707 93.201 8.37453 92.8814C7.98535 92.7441 7.62837 92.5284 7.32561 92.2476C7.02285 91.9668 6.78074 91.6268 6.61419 91.2487C6.41097 90.7116 6.42793 90.1158 6.66132 89.5912C6.89471 89.0665 7.32564 88.6555 7.86022 88.4477C7.90477 88.42 7.95462 88.4019 8.00657 88.3946C8.05852 88.3872 8.11139 88.3909 8.16185 88.4052C8.21232 88.4196 8.25926 88.4443 8.29963 88.4779C8.33999 88.5114 8.37291 88.5531 8.39628 88.6001C8.51944 88.8323 9.28006 90.4432 9.91755 91.9671C11.5982 91.2995 11.9387 90.0369 11.591 89.1153C11.367 88.537 10.9246 88.0703 10.3595 87.8164L10.5478 87.5044ZM7.21547 91.4011C7.42555 91.9743 8.14999 92.3516 9.31631 92.1267C9.04828 91.4011 8.78022 90.7117 8.47596 89.9498C8.38178 89.7248 8.28036 89.6668 8.1065 89.7321C7.93961 89.7788 7.78369 89.8584 7.64785 89.9661C7.51201 90.0739 7.39899 90.2076 7.31535 90.3596C7.23172 90.5116 7.17917 90.6788 7.16078 90.8514C7.14238 91.024 7.15851 91.1985 7.20822 91.3648L7.21547 91.4011Z" fill="url(#paint36_radial_157_6105)"/>
<path d="M4.77414 84.5365C4.58748 84.3539 4.45037 84.1266 4.37571 83.8762C4.28812 83.5422 4.26983 83.1938 4.32199 82.8525C4.37415 82.5111 4.49562 82.1842 4.67894 81.8917C4.86226 81.5993 5.10349 81.3476 5.38776 81.1523C5.67202 80.9569 5.9933 80.822 6.33166 80.756C8.33831 80.248 10.0624 81.5832 10.8448 83.2812C10.9093 83.6216 10.9093 83.9712 10.8448 84.3116L12.6269 83.8617C13.6193 83.615 13.6773 83.4916 13.5034 82.4104L13.8729 82.3161L14.7204 85.6903L14.351 85.7846C14.0467 84.9139 13.9236 84.8195 13.0398 85.059L6.92565 86.5973C6.07808 86.8078 6.05638 86.8949 6.15056 87.7439L5.81731 87.8309C5.50439 87.1482 5.13104 86.4949 4.70171 85.879L5.77384 85.6105L4.77414 84.5365ZM9.88856 84.5365C10.1313 84.0941 10.2059 83.5786 10.0986 83.0853C9.80886 81.9315 8.59907 81.4744 7.20094 81.8299C5.8028 82.1855 5.15082 83.2812 5.38988 84.239C5.56805 84.7064 5.87444 85.1139 6.2737 85.4146L9.88856 84.5365Z" fill="url(#paint37_radial_157_6105)"/>
<path d="M4.72299 77.5632C3.9044 77.2076 3.08579 76.7359 2.99161 76.0756C2.94977 75.8711 2.98815 75.6582 3.09875 75.4812C3.20935 75.3043 3.38368 75.1767 3.58565 75.125C3.74415 75.1056 3.90491 75.1322 4.04876 75.2016C4.1926 75.2711 4.31347 75.3805 4.397 75.5169C4.43562 75.5735 4.45629 75.6405 4.45629 75.7092C4.45629 75.7778 4.43562 75.8448 4.397 75.9015C4.32148 75.9911 4.26514 76.0953 4.2315 76.2077C4.19785 76.32 4.18764 76.4381 4.20143 76.5545C4.25214 76.9173 4.71576 77.2802 5.49813 77.4833L7.96839 77.1351C8.88117 77.0117 8.95362 76.9319 8.88843 75.8217L9.25064 75.7709L9.72153 79.1305L9.35207 79.1813C9.14923 78.3468 9.04782 78.2308 8.14229 78.3614L5.2446 78.7605C4.36805 78.8838 4.31732 78.9709 4.31732 79.7691L4.00582 79.8126C3.79267 79.1154 3.50357 78.4438 3.14376 77.8099L4.68678 77.5922L4.72299 77.5632Z" fill="url(#paint38_radial_157_6105)"/>
<path d="M0.826064 73.4416C0.724225 73.4485 0.622041 73.4351 0.525356 73.4024C0.428671 73.3696 0.339406 73.318 0.262673 73.2506C0.18594 73.1832 0.123242 73.1012 0.0782068 73.0095C0.0331711 72.9177 0.00665636 72.818 0.000211034 72.7159C-0.00994512 72.6147 0.00127733 72.5125 0.0331072 72.4159C0.064937 72.3193 0.116677 72.2305 0.184987 72.1552C0.253296 72.08 0.336659 72.0199 0.42963 71.979C0.5226 71.9381 0.623086 71.9172 0.724634 71.9177C0.927156 71.9078 1.1254 71.9786 1.27604 72.1145C1.42669 72.2505 1.51754 72.4406 1.52878 72.6434C1.53177 72.8401 1.46143 73.0309 1.33149 73.1785C1.20155 73.3261 1.02133 73.4199 0.826064 73.4416ZM9.04829 73.6883H8.67883C8.53394 72.8103 8.44698 72.7087 7.46901 72.7667L4.67275 72.9409C3.7962 72.9917 3.731 73.0425 3.63683 73.8915H3.30358C3.1559 73.1741 2.93502 72.4738 2.64437 71.8016L7.39658 71.5186C8.36007 71.4606 8.43251 71.359 8.48322 70.4447H8.85268L9.04829 73.6883Z" fill="url(#paint39_radial_157_6105)"/>
<path d="M4.49159 65.9313C3.66575 66.1925 3.04275 66.6569 3.04275 67.3825C3.0385 67.5027 3.05937 67.6225 3.10403 67.7342C3.14869 67.8458 3.21618 67.9469 3.30211 68.031C3.38805 68.115 3.49056 68.1801 3.60309 68.2222C3.71561 68.2642 3.83565 68.2822 3.95553 68.275C4.52782 68.275 4.8683 67.7526 5.12909 67.1213C5.57823 66.0473 6.09257 65.3145 7.07779 65.3362C8.38899 65.3362 9.01201 66.5698 8.99753 67.7453C8.99949 68.3278 8.83069 68.898 8.51213 69.3853C7.94797 69.5255 7.36926 69.5986 6.788 69.603L6.73733 69.2111C7.67908 68.9571 8.5194 68.3331 8.53388 67.4914C8.53775 67.3646 8.51664 67.2383 8.47176 67.1198C8.42688 67.0012 8.3591 66.8926 8.27231 66.8003C8.18552 66.708 8.0814 66.6337 7.96594 66.5817C7.85047 66.5297 7.72594 66.501 7.59939 66.4972C7.0271 66.4972 6.70835 66.8601 6.37512 67.5784C6.04188 68.2968 5.49132 69.3708 4.38296 69.3563C3.3905 69.3563 2.56462 68.4637 2.58636 67.1285C2.57926 66.6881 2.67085 66.2517 2.85439 65.8514C3.34511 65.6992 3.84996 65.5971 4.3612 65.5467L4.49159 65.9313Z" fill="url(#paint40_radial_157_6105)"/>
<path d="M8.29455 59.0305C8.65522 59.3478 8.94253 59.74 9.13645 60.1799C9.33037 60.6198 9.42623 61.0967 9.4174 61.5774C9.37376 61.9556 9.25344 62.3208 9.06381 62.6507C8.87418 62.9806 8.61926 63.2682 8.31467 63.4958C8.01008 63.7235 7.66225 63.8863 7.29254 63.9745C6.92284 64.0626 6.53905 64.0741 6.16475 64.0083C5.28851 63.9205 4.47816 63.503 3.8973 62.84C3.61419 62.5413 3.39545 62.1875 3.25463 61.8005C3.11381 61.4136 3.05391 61.0017 3.0787 60.5906C3.14256 60.0214 3.4278 59.5004 3.87258 59.1404C4.31736 58.7805 4.88586 58.6106 5.45482 58.6676C5.72286 58.6676 5.83877 58.791 5.8605 59.0522C5.88223 59.3135 5.81704 61.0985 5.68665 62.7384C7.48321 62.9126 8.35975 61.9403 8.47566 60.9607C8.53531 60.3443 8.35059 59.7292 7.96134 59.2481L8.29455 59.0305ZM3.56409 60.9824C3.49165 61.5847 3.96252 62.2595 5.09986 62.5861C5.17955 61.8604 5.26648 61.084 5.32443 60.2931C5.32443 60.0463 5.28097 59.952 5.09986 59.9302C4.93078 59.8945 4.75626 59.8932 4.58666 59.9263C4.41705 59.9595 4.2558 60.0265 4.11254 60.1233C3.96928 60.2201 3.84693 60.3447 3.75271 60.4898C3.65849 60.6349 3.59435 60.7975 3.56409 60.9679V60.9824Z" fill="url(#paint41_radial_157_6105)"/>
<path d="M10.4242 46.7455C10.9024 46.9922 12.0542 47.638 12.4454 47.8847L10.3808 54.5968L9.99687 54.4807C10.2866 53.2181 10.1924 53.0294 9.09854 52.7247L3.86823 51.1138C2.64396 50.7364 2.57152 50.8453 2.15135 51.8757L1.75293 51.7523L3.65817 45.5482C4.00589 45.6352 4.9114 45.8602 5.67929 46.0343L5.59961 46.4697C5.16518 46.4256 4.72638 46.4576 4.30287 46.564C3.95514 46.6729 3.74507 47.0212 3.45531 47.9645L3.14381 48.9732C3.00617 49.4231 3.03516 49.4666 3.4336 49.5899L6.43267 50.5115L6.81664 49.2561C7.19334 48.0298 7.11364 47.9065 6.25882 47.4566L6.38921 47.043L9.00436 47.8484L8.88123 48.262C7.8453 48.1532 7.74387 48.262 7.37441 49.4303L6.99049 50.6784L9.4463 51.4403C10.0765 51.629 10.3953 51.6507 10.6416 51.4403C10.9292 51.0365 11.1291 50.5767 11.2283 50.0906C11.5326 49.0892 11.5688 48.6394 11.3153 48.233C11.0198 47.8138 10.6576 47.4461 10.2431 47.1445L10.4242 46.7455Z" fill="url(#paint42_radial_157_6105)"/>
<path d="M9.36671 34.0105C9.05521 34.7362 9.04801 35.1207 9.59133 35.4618C10.2698 35.8785 10.9711 36.2564 11.6921 36.5938L16.6979 39.061L16.4951 39.4746L7.2007 41.8982L10.2578 43.4148C10.9653 43.7691 11.6907 44.0864 12.4311 44.3654C13.1048 44.6266 13.4018 44.4089 13.8799 43.5599L14.2421 43.7341L12.728 46.8107L12.3731 46.6293C12.6846 45.8674 12.6773 45.4611 12.0833 45.091C11.4108 44.6619 10.7115 44.2766 9.98975 43.9372L7.30213 42.6093C6.38211 42.1594 6.29518 42.1667 5.85328 42.2538C5.41138 42.3408 5.17955 42.5948 4.83907 43.1681L4.4624 42.9867L5.4331 41.0129L14.3001 38.5893L11.4024 37.138C10.7087 36.788 9.99784 36.4732 9.27258 36.1947C8.64958 35.9625 8.33808 36.1947 7.82373 37.08L7.44702 36.8986L8.95383 33.8364L9.36671 34.0105Z" fill="url(#paint43_radial_157_6105)"/>
<path d="M14.7928 29.2504C13.909 28.9456 12.8296 28.7352 12.1414 29.7293C12.0067 29.8899 11.9084 30.0778 11.8532 30.2802C11.7979 30.4825 11.7872 30.6945 11.8216 30.9014C11.8561 31.1083 11.9348 31.3052 12.0526 31.4787C12.1703 31.6522 12.3242 31.798 12.5036 31.9062C13.315 32.4649 14.0756 32.1965 15.2057 31.5506C16.3358 30.9048 17.6398 30.2227 18.9075 31.0935C20.1753 31.9642 20.3998 33.6767 19.2914 35.2877C19.0207 35.693 18.6826 36.0489 18.2917 36.3398C18.0891 36.4961 17.8735 36.6344 17.647 36.7534C16.9457 36.477 16.2589 36.1646 15.5897 35.8174L15.7345 35.3893C16.6039 35.694 18.1976 35.948 19.0307 34.7434C19.1717 34.5721 19.2736 34.3719 19.3293 34.157C19.385 33.942 19.3931 33.7175 19.3531 33.499C19.3131 33.2806 19.2259 33.0736 19.0976 32.8924C18.9693 32.7113 18.8031 32.5604 18.6105 32.4504C17.7774 31.8699 16.9516 32.2327 15.8649 32.806C14.7783 33.3792 13.5395 34.0758 12.2428 33.1978C11.0982 32.4069 10.794 30.825 11.8371 29.2866C12.2093 28.7751 12.6562 28.3225 13.1629 27.9442C13.6048 28.1837 14.1191 28.4522 14.9449 28.8658L14.7928 29.2504Z" fill="url(#paint44_radial_157_6105)"/>
<path d="M25.2461 27.5306L24.9491 27.2621C25.4561 26.5365 25.4489 26.3478 24.9056 26.1011C24.3623 25.8544 23.6741 25.5932 22.8772 25.2812L20.7981 27.5451C21.1096 28.1547 21.3777 28.6626 21.6674 29.1706C22.0876 29.9688 22.2832 29.9978 23.1163 29.2794L23.4133 29.5479L21.2835 31.8772L20.9865 31.6014C21.5081 30.825 21.5733 30.6073 20.9865 29.4245L17.6396 22.277L17.8859 21.8271C20.3272 22.8212 22.7758 23.8299 25.2316 24.7877C26.4486 25.2884 26.6804 25.2449 27.4049 24.6208L27.7019 24.8966L25.2461 27.5306ZM18.8639 23.5759C19.4072 24.6934 19.9795 25.8399 20.5228 26.9138L22.2904 24.9836L18.8639 23.5759Z" fill="url(#paint45_radial_157_6105)"/>
<path d="M35.7719 18.7577L35.5473 18.4239C36.2138 17.8216 36.2717 17.6475 35.7719 17.2919C35.272 16.9363 34.6852 16.5155 33.9826 16.022L31.4471 17.749C31.6137 18.4166 31.7586 18.9754 31.9252 19.5341C32.1497 20.4121 32.3381 20.4847 33.2943 19.9695L33.5189 20.296L30.911 22.0811L30.6864 21.7473C31.4109 21.1015 31.4833 20.9128 31.2008 19.5704L29.5708 11.8424L29.9113 11.465C32.0846 12.9889 34.2216 14.5272 36.3876 16.0293C37.4598 16.7912 37.7133 16.7985 38.5609 16.3558L38.7855 16.6896L35.7719 18.7577ZM30.4619 13.446C30.7372 14.6651 31.0414 15.9059 31.3167 17.0742L33.49 15.6229L30.4619 13.446Z" fill="url(#paint46_radial_157_6105)"/>
<path d="M42.1902 8.42462C42.1883 8.75112 42.1009 9.0714 41.9366 9.35343L41.2122 9.67998C41.6093 9.8724 41.9288 10.195 42.1177 10.5943C42.7842 11.9367 41.9584 13.1703 40.8355 13.729C40.6004 13.835 40.3584 13.9247 40.1111 13.9975C40.0514 14.0913 40.0123 14.1967 39.996 14.3067C39.9798 14.4168 39.9869 14.529 40.0169 14.6361C40.1401 14.8755 40.495 15.0061 41.0673 14.7231C41.5092 14.4982 41.9294 14.2587 42.3713 14.041C43.1392 13.6565 44.3417 13.3517 44.972 14.6143C45.6022 15.8769 44.6967 17.8942 42.9943 18.7432C41.5455 19.4688 40.3719 19.0189 40.0024 18.3223C39.9366 18.1827 39.9025 18.0303 39.9025 17.876C39.9025 17.7217 39.9366 17.5693 40.0024 17.4298C40.1473 17.0234 40.4298 16.4792 40.6109 16.0873C40.1701 16.1855 39.7084 16.1101 39.3215 15.8769C39.1301 15.7677 38.9818 15.5961 38.9013 15.3907C39.2458 15.0185 39.4945 14.5676 39.6257 14.0773C39.2247 14.1078 38.8238 14.0168 38.4751 13.8162C38.1263 13.6157 37.8458 13.3148 37.6698 12.9526C37.5388 12.6558 37.4682 12.3357 37.4623 12.0112C37.4564 11.6867 37.5152 11.3643 37.6353 11.0629C37.7554 10.7614 37.9344 10.4871 38.1617 10.2558C38.3891 10.0246 38.6602 9.84114 38.9593 9.71625C39.3919 9.50543 39.8693 9.40333 40.3502 9.41875C40.9804 9.06319 41.6034 8.65682 42.0453 8.35931L42.1902 8.42462ZM39.0535 10.1734C38.5391 10.4274 38.2928 11.1675 38.7782 12.1544C39.2635 13.1412 40.0604 13.6057 40.7558 13.2501C41.2991 12.9671 41.5237 12.2415 41.0311 11.2546C40.5385 10.2677 39.7706 9.80333 39.0607 10.1662L39.0535 10.1734ZM41.9511 15.4633C41.5424 15.6078 41.1982 15.8933 40.9804 16.2687C40.8837 16.4501 40.8266 16.65 40.8129 16.8552C40.7991 17.0603 40.8291 17.2661 40.9007 17.4588C41.2267 18.1191 42.2047 18.3295 43.1899 17.8361C44.3417 17.2629 44.6387 16.3848 44.2838 15.5939C44.1995 15.3962 44.0541 15.2309 43.8688 15.1225C43.6836 15.014 43.4684 14.9681 43.2551 14.9916C42.8018 15.071 42.3655 15.2281 41.9656 15.456L41.9511 15.4633Z" fill="url(#paint47_radial_157_6105)"/>
<path d="M49.5648 12.2487C49.3144 12.3396 49.0401 12.3396 48.7897 12.2487C48.5803 12.1526 48.4003 12.0023 48.2681 11.8133C47.8552 12.3503 47.3988 13.0542 47.0221 13.1921C46.8091 13.2746 46.5819 13.314 46.3537 13.3079C46.1254 13.3018 45.9006 13.2503 45.6923 13.1565C45.4841 13.0627 45.2965 12.9283 45.1405 12.7613C44.9845 12.5942 44.8632 12.3978 44.7836 12.1834C44.6675 11.8755 44.6658 11.536 44.7788 11.2269C44.8919 10.9179 45.1122 10.6598 45.3994 10.4999C46.0513 10.0444 46.6386 9.5025 47.1452 8.88903L47.0583 8.65683C46.7178 7.7135 46.1021 7.3652 45.4646 7.60466C45.3589 7.63977 45.2618 7.69664 45.1795 7.77163C45.0971 7.84662 45.0314 7.93805 44.9865 8.04004C44.8765 8.37438 44.8492 8.73045 44.9068 9.0777C44.9216 9.18267 44.8983 9.28948 44.8411 9.3787C44.784 9.46792 44.6967 9.53363 44.5953 9.56388C44.4369 9.60581 44.2691 9.59276 44.1191 9.52687C43.9691 9.46098 43.8459 9.34614 43.7694 9.20106C43.7042 9.00514 43.8129 8.78019 44.0085 8.47542C44.4645 7.81791 45.0395 7.25181 45.7036 6.80646C46.0932 6.64038 46.5275 6.61222 46.9352 6.72664C47.2429 6.85213 47.5165 7.04921 47.7331 7.30157C47.9498 7.55393 48.1033 7.85432 48.1812 8.17791L49.0432 10.5362C49.2605 11.124 49.5648 11.2619 49.7676 11.1458C49.9325 11.0769 50.0772 10.967 50.1878 10.8265L50.4559 11.1313L49.5648 12.2487ZM47.3118 9.34618C47.0945 9.57839 46.6454 10.0283 46.4136 10.2605C45.9789 10.6741 45.7906 11.0369 45.9644 11.5231C46.0022 11.652 46.0657 11.772 46.151 11.8757C46.2364 11.9794 46.3418 12.0646 46.461 12.1264C46.5801 12.1881 46.7106 12.225 46.8444 12.2348C46.9782 12.2446 47.1125 12.2271 47.2394 12.1834C47.5971 12.0224 47.8887 11.7432 48.0653 11.3925L47.3118 9.34618Z" fill="url(#paint48_radial_157_6105)"/>
<path d="M57.8598 9.50582C57.1314 9.8126 56.4225 10.164 55.7372 10.558L55.5272 9.67998L54.8028 10.3621C54.5375 10.6511 54.2071 10.8725 53.8393 11.0079C53.4729 11.0783 53.0963 11.0755 52.731 10.9998C52.3658 10.924 52.0191 10.7767 51.7108 10.5663C51.4025 10.356 51.1387 10.0867 50.9346 9.77395C50.7305 9.4612 50.5901 9.11115 50.5214 8.7439C50.3457 7.81161 50.5414 6.84745 51.0668 6.05803C51.5922 5.26861 52.4054 4.71675 53.3322 4.52071C53.6363 4.45271 53.9488 4.43069 54.2594 4.45539L53.803 2.53971C53.593 1.65444 53.4916 1.63993 52.4991 1.81408L52.4122 1.46578C53.1646 1.18782 53.8917 0.845507 54.5854 0.442627L56.5124 8.5117C56.6935 9.23734 56.8094 9.29539 57.3817 9.23734L57.7801 9.17929L57.8598 9.50582ZM54.542 5.53659C54.3297 5.3516 54.0756 5.22122 53.8017 5.15673C53.5278 5.09225 53.2423 5.09561 52.9699 5.16652C52.3832 5.30439 51.3473 6.07357 51.8181 8.06906C52.2093 9.69449 53.4191 10.1879 54.2739 9.98474C54.7181 9.85564 55.1172 9.60422 55.4257 9.25911L54.542 5.53659Z" fill="url(#paint49_radial_157_6105)"/>
<path d="M58.5478 9.88316L58.4681 9.50582C59.3374 9.29539 59.4316 9.1938 59.294 8.22871L58.91 5.44226C58.7941 4.5715 58.7362 4.51345 57.8814 4.48443L57.8379 4.15063C58.5407 3.94886 59.2205 3.67405 59.8663 3.33067L60.5183 8.06181C60.6487 9.01964 60.7573 9.08496 61.6701 9.06319L61.7208 9.43326L58.5478 9.88316ZM58.1711 1.64719C58.1558 1.54509 58.161 1.44096 58.1864 1.34088C58.2117 1.24081 58.2567 1.1468 58.3188 1.06436C58.3808 0.98193 58.4587 0.912722 58.5478 0.860789C58.6369 0.808856 58.7354 0.775241 58.8376 0.761913C58.9384 0.74434 59.0417 0.748341 59.1408 0.77365C59.2399 0.798958 59.3326 0.845005 59.4126 0.908754C59.4927 0.972504 59.5584 1.05252 59.6054 1.14352C59.6523 1.23453 59.6795 1.33447 59.6852 1.43676C59.7099 1.63766 59.6545 1.84021 59.5311 2.0005C59.4077 2.16078 59.2262 2.26588 59.026 2.293C58.8282 2.31436 58.6298 2.25947 58.471 2.13951C58.3122 2.01954 58.205 1.84351 58.1711 1.64719Z" fill="url(#paint50_radial_157_6105)"/>
<path d="M64.4302 4.46266C64.8576 3.67172 65.3937 2.89529 66.0529 2.85175C66.2595 2.82633 66.468 2.88145 66.6352 3.00571C66.8024 3.12997 66.9156 3.31386 66.9512 3.51933C66.9612 3.67967 66.924 3.83942 66.8441 3.97875C66.7643 4.11807 66.6453 4.23083 66.5021 4.30302C66.4455 4.34171 66.3786 4.3624 66.3101 4.3624C66.2416 4.3624 66.1747 4.34171 66.1181 4.30302C66.035 4.21946 65.9353 4.15432 65.8255 4.11181C65.7157 4.06931 65.5982 4.05041 65.4806 4.05631C65.1184 4.05631 64.7127 4.51345 64.4519 5.27537L64.5968 7.77156C64.6548 8.68586 64.7272 8.76568 65.8356 8.78744V9.16478L62.4525 9.3607V8.99062C63.3001 8.85275 63.4233 8.75843 63.3653 7.84413L63.1987 4.94158C63.148 4.04905 63.0683 3.99826 62.2642 3.93295V3.61367C62.9789 3.45559 63.6721 3.21196 64.3288 2.88803L64.4229 4.44815L64.4302 4.46266Z" fill="url(#paint51_radial_157_6105)"/>
</g>
<defs>
<radialGradient id="paint0_radial_157_6105" cx="0" cy="0" r="1" gradientUnits="userSpaceOnUse" gradientTransform="translate(70.6801 5.67447) rotate(90.4702) scale(16.6321 6.54158)">
<stop stop-color="#1614D1"/>
<stop offset="0.359375" stop-color="#1F2656"/>
</radialGradient>
<radialGradient id="paint1_radial_157_6105" cx="0" cy="0" r="1" gradientUnits="userSpaceOnUse" gradientTransform="translate(76.8083 6.6577) rotate(91.1312) scale(9.80072 9.27106)">
<stop stop-color="#1614D1"/>
<stop offset="0.359375" stop-color="#1F2656"/>
</radialGradient>
<radialGradient id="paint2_radial_157_6105" cx="0" cy="0" r="1" gradientUnits="userSpaceOnUse" gradientTransform="translate(83.9772 8.4464) rotate(91.1702) scale(10.765 10.5343)">
<stop stop-color="#1614D1"/>
<stop offset="0.359375" stop-color="#1F2656"/>
</radialGradient>
<radialGradient id="paint3_radial_157_6105" cx="0" cy="0" r="1" gradientUnits="userSpaceOnUse" gradientTransform="translate(90.4959 9.07812) rotate(90.6756) scale(13.2414 7.48192)">
<stop stop-color="#1614D1"/>
<stop offset="0.359375" stop-color="#1F2656"/>
</radialGradient>
<radialGradient id="paint4_radial_157_6105" cx="0" cy="0" r="1" gradientUnits="userSpaceOnUse" gradientTransform="translate(95.8105 12.5313) rotate(91.2141) scale(9.36973 9.51283)">
<stop stop-color="#1614D1"/>
<stop offset="0.359375" stop-color="#1F2656"/>
</radialGradient>
<radialGradient id="paint5_radial_157_6105" cx="0" cy="0" r="1" gradientUnits="userSpaceOnUse" gradientTransform="translate(101.536 15.5867) rotate(91.2928) scale(9.64235 10.4237)">
<stop stop-color="#1614D1"/>
<stop offset="0.359375" stop-color="#1F2656"/>
</radialGradient>
<radialGradient id="paint6_radial_157_6105" cx="0" cy="0" r="1" gradientUnits="userSpaceOnUse" gradientTransform="translate(111.068 21.2865) rotate(91.1654) scale(16.5396 16.1183)">
<stop stop-color="#1614D1"/>
<stop offset="0.359375" stop-color="#1F2656"/>
</radialGradient>
<radialGradient id="paint7_radial_157_6105" cx="0" cy="0" r="1" gradientUnits="userSpaceOnUse" gradientTransform="translate(115.61 28.7134) rotate(91.0685) scale(13.2015 11.7969)">
<stop stop-color="#1614D1"/>
<stop offset="0.359375" stop-color="#1F2656"/>
</radialGradient>
<radialGradient id="paint8_radial_157_6105" cx="0" cy="0" r="1" gradientUnits="userSpaceOnUse" gradientTransform="translate(120.672 33.4845) rotate(91.3102) scale(9.27158 10.1574)">
<stop stop-color="#1614D1"/>
<stop offset="0.359375" stop-color="#1F2656"/>
</radialGradient>
<radialGradient id="paint9_radial_157_6105" cx="0" cy="0" r="1" gradientUnits="userSpaceOnUse" gradientTransform="translate(122.643 37.5444) rotate(91.5776) scale(8.3295 10.9864)">
<stop stop-color="#1614D1"/>
<stop offset="0.359375" stop-color="#1F2656"/>
</radialGradient>
<radialGradient id="paint10_radial_157_6105" cx="0" cy="0" r="1" gradientUnits="userSpaceOnUse" gradientTransform="translate(125.378 43.4483) rotate(91.3437) scale(8.31544 9.34282)">
<stop stop-color="#1614D1"/>
<stop offset="0.359375" stop-color="#1F2656"/>
</radialGradient>
<radialGradient id="paint11_radial_157_6105" cx="0" cy="0" r="1" gradientUnits="userSpaceOnUse" gradientTransform="translate(125.888 49.3349) rotate(91.7517) scale(10.5529 15.4526)">
<stop stop-color="#1614D1"/>
<stop offset="0.359375" stop-color="#1F2656"/>
</radialGradient>
<radialGradient id="paint12_radial_157_6105" cx="0" cy="0" r="1" gradientUnits="userSpaceOnUse" gradientTransform="translate(129.46 55.9256) rotate(91.7706) scale(6.84899 10.1373)">
<stop stop-color="#1614D1"/>
<stop offset="0.359375" stop-color="#1F2656"/>
</radialGradient>
<radialGradient id="paint13_radial_157_6105" cx="0" cy="0" r="1" gradientUnits="userSpaceOnUse" gradientTransform="translate(131.549 61.3235) rotate(92.8746) scale(5.53667 13.2907)">
<stop stop-color="#1614D1"/>
<stop offset="0.359375" stop-color="#1F2656"/>
</radialGradient>
<radialGradient id="paint14_radial_157_6105" cx="0" cy="0" r="1" gradientUnits="userSpaceOnUse" gradientTransform="translate(130.585 66.081) rotate(91.7888) scale(6.28788 9.40222)">
<stop stop-color="#1614D1"/>
<stop offset="0.359375" stop-color="#1F2656"/>
</radialGradient>
<radialGradient id="paint15_radial_157_6105" cx="0" cy="0" r="1" gradientUnits="userSpaceOnUse" gradientTransform="translate(130.524 72.1306) rotate(91.4433) scale(7.73399 9.33341)">
<stop stop-color="#1614D1"/>
<stop offset="0.359375" stop-color="#1F2656"/>
</radialGradient>
<radialGradient id="paint16_radial_157_6105" cx="0" cy="0" r="1" gradientUnits="userSpaceOnUse" gradientTransform="translate(130.331 83.4445) rotate(91.4475) scale(12.5994 15.2487)">
<stop stop-color="#1614D1"/>
<stop offset="0.359375" stop-color="#1F2656"/>
</radialGradient>
<radialGradient id="paint17_radial_157_6105" cx="0" cy="0" r="1" gradientUnits="userSpaceOnUse" gradientTransform="translate(127.378 93.3748) rotate(91.1264) scale(18.5843 17.505)">
<stop stop-color="#1614D1"/>
<stop offset="0.359375" stop-color="#1F2656"/>
</radialGradient>
<radialGradient id="paint18_radial_157_6105" cx="0" cy="0" r="1" gradientUnits="userSpaceOnUse" gradientTransform="translate(122.884 101.662) rotate(91.2423) scale(12.503 12.989)">
<stop stop-color="#1614D1"/>
<stop offset="0.359375" stop-color="#1F2656"/>
</radialGradient>
<radialGradient id="paint19_radial_157_6105" cx="0" cy="0" r="1" gradientUnits="userSpaceOnUse" gradientTransform="translate(116.306 107.427) rotate(91.242) scale(14.3573 14.9114)">
<stop stop-color="#1614D1"/>
<stop offset="0.359375" stop-color="#1F2656"/>
</radialGradient>
<radialGradient id="paint20_radial_157_6105" cx="0" cy="0" r="1" gradientUnits="userSpaceOnUse" gradientTransform="translate(105.403 118.065) rotate(91.0774) scale(15.3524 13.8327)">
<stop stop-color="#1614D1"/>
<stop offset="0.359375" stop-color="#1F2656"/>
</radialGradient>
<radialGradient id="paint21_radial_157_6105" cx="0" cy="0" r="1" gradientUnits="userSpaceOnUse" gradientTransform="translate(98.3058 121.768) rotate(90.8784) scale(15.7024 11.5364)">
<stop stop-color="#1614D1"/>
<stop offset="0.359375" stop-color="#1F2656"/>
</radialGradient>
<radialGradient id="paint22_radial_157_6105" cx="0" cy="0" r="1" gradientUnits="userSpaceOnUse" gradientTransform="translate(92.7115 125.842) rotate(91.2356) scale(9.69609 10.0186)">
<stop stop-color="#1614D1"/>
<stop offset="0.359375" stop-color="#1F2656"/>
</radialGradient>
<radialGradient id="paint23_radial_157_6105" cx="0" cy="0" r="1" gradientUnits="userSpaceOnUse" gradientTransform="translate(85.7658 130.404) rotate(90.8374) scale(15.5519 10.8926)">
<stop stop-color="#1614D1"/>
<stop offset="0.359375" stop-color="#1F2656"/>
</radialGradient>
<radialGradient id="paint24_radial_157_6105" cx="0" cy="0" r="1" gradientUnits="userSpaceOnUse" gradientTransform="translate(80.2901 131.183) rotate(90.5476) scale(13.3355 6.10755)">
<stop stop-color="#1614D1"/>
<stop offset="0.359375" stop-color="#1F2656"/>
</radialGradient>
<radialGradient id="paint25_radial_157_6105" cx="0" cy="0" r="1" gradientUnits="userSpaceOnUse" gradientTransform="translate(75.6651 130.738) rotate(90.8392) scale(9.76807 6.85565)">
<stop stop-color="#1614D1"/>
<stop offset="0.359375" stop-color="#1F2656"/>
</radialGradient>
<radialGradient id="paint26_radial_157_6105" cx="0" cy="0" r="1" gradientUnits="userSpaceOnUse" gradientTransform="translate(62.0556 131.347) rotate(90.5399) scale(16.5263 7.4624)">
<stop stop-color="#1614D1"/>
<stop offset="0.359375" stop-color="#1F2656"/>
</radialGradient>
<radialGradient id="paint27_radial_157_6105" cx="0" cy="0" r="1" gradientUnits="userSpaceOnUse" gradientTransform="translate(55.9958 129.972) rotate(91.036) scale(10.1394 8.78447)">
<stop stop-color="#1614D1"/>
<stop offset="0.359375" stop-color="#1F2656"/>
</radialGradient>
<radialGradient id="paint28_radial_157_6105" cx="0" cy="0" r="1" gradientUnits="userSpaceOnUse" gradientTransform="translate(48.9578 127.661) rotate(91.1525) scale(11.2312 10.8247)">
<stop stop-color="#1614D1"/>
<stop offset="0.359375" stop-color="#1F2656"/>
</radialGradient>
<radialGradient id="paint29_radial_157_6105" cx="0" cy="0" r="1" gradientUnits="userSpaceOnUse" gradientTransform="translate(42.5311 126.629) rotate(90.7285) scale(13.0885 7.97467)">
<stop stop-color="#1614D1"/>
<stop offset="0.359375" stop-color="#1F2656"/>
</radialGradient>
<radialGradient id="paint30_radial_157_6105" cx="0" cy="0" r="1" gradientUnits="userSpaceOnUse" gradientTransform="translate(37.3535 122.922) rotate(91.2095) scale(9.35662 9.4631)">
<stop stop-color="#1614D1"/>
<stop offset="0.359375" stop-color="#1F2656"/>
</radialGradient>
<radialGradient id="paint31_radial_157_6105" cx="0" cy="0" r="1" gradientUnits="userSpaceOnUse" gradientTransform="translate(31.8559 119.577) rotate(91.3105) scale(9.6424 10.566)">
<stop stop-color="#1614D1"/>
<stop offset="0.359375" stop-color="#1F2656"/>
</radialGradient>
<radialGradient id="paint32_radial_157_6105" cx="0" cy="0" r="1" gradientUnits="userSpaceOnUse" gradientTransform="translate(22.6124 113.25) rotate(91.1867) scale(16.4231 16.2981)">
<stop stop-color="#1614D1"/>
<stop offset="0.359375" stop-color="#1F2656"/>
</radialGradient>
<radialGradient id="paint33_radial_157_6105" cx="0" cy="0" r="1" gradientUnits="userSpaceOnUse" gradientTransform="translate(18.5774 105.565) rotate(91.0605) scale(13.2015 11.7086)">
<stop stop-color="#1614D1"/>
<stop offset="0.359375" stop-color="#1F2656"/>
</radialGradient>
<radialGradient id="paint34_radial_157_6105" cx="0" cy="0" r="1" gradientUnits="userSpaceOnUse" gradientTransform="translate(13.7588 100.588) rotate(91.3962) scale(8.9858 10.4901)">
<stop stop-color="#1614D1"/>
<stop offset="0.359375" stop-color="#1F2656"/>
</radialGradient>
<radialGradient id="paint35_radial_157_6105" cx="0" cy="0" r="1" gradientUnits="userSpaceOnUse" gradientTransform="translate(12.0864 96.3644) rotate(91.6289) scale(7.99059 10.8814)">
<stop stop-color="#1614D1"/>
<stop offset="0.359375" stop-color="#1F2656"/>
</radialGradient>
<radialGradient id="paint36_radial_157_6105" cx="0" cy="0" r="1" gradientUnits="userSpaceOnUse" gradientTransform="translate(9.67871 90.3127) rotate(91.3666) scale(8.20194 9.37249)">
<stop stop-color="#1614D1"/>
<stop offset="0.359375" stop-color="#1F2656"/>
</radialGradient>
<radialGradient id="paint37_radial_157_6105" cx="0" cy="0" r="1" gradientUnits="userSpaceOnUse" gradientTransform="translate(9.50278 84.2388) rotate(91.7363) scale(10.4927 15.2299)">
<stop stop-color="#1614D1"/>
<stop offset="0.359375" stop-color="#1F2656"/>
</radialGradient>
<radialGradient id="paint38_radial_157_6105" cx="0" cy="0" r="1" gradientUnits="userSpaceOnUse" gradientTransform="translate(6.34577 77.4657) rotate(91.7194) scale(6.85542 9.85362)">
<stop stop-color="#1614D1"/>
<stop offset="0.359375" stop-color="#1F2656"/>
</radialGradient>
<radialGradient id="paint39_radial_157_6105" cx="0" cy="0" r="1" gradientUnits="userSpaceOnUse" gradientTransform="translate(4.51903 72.1681) rotate(93.1393) scale(5.03938 13.2067)">
<stop stop-color="#1614D1"/>
<stop offset="0.359375" stop-color="#1F2656"/>
</radialGradient>
<radialGradient id="paint40_radial_157_6105" cx="0" cy="0" r="1" gradientUnits="userSpaceOnUse" gradientTransform="translate(5.78944 67.4694) rotate(91.7974) scale(6.23263 9.36452)">
<stop stop-color="#1614D1"/>
<stop offset="0.359375" stop-color="#1F2656"/>
</radialGradient>
<radialGradient id="paint41_radial_157_6105" cx="0" cy="0" r="1" gradientUnits="userSpaceOnUse" gradientTransform="translate(6.24321 61.3536) rotate(91.4073) scale(7.87624 9.26826)">
<stop stop-color="#1614D1"/>
<stop offset="0.359375" stop-color="#1F2656"/>
</radialGradient>
<radialGradient id="paint42_radial_157_6105" cx="0" cy="0" r="1" gradientUnits="userSpaceOnUse" gradientTransform="translate(7.09512 50.0725) rotate(91.4137) scale(13.2139 15.6193)">
<stop stop-color="#1614D1"/>
<stop offset="0.359375" stop-color="#1F2656"/>
</radialGradient>
<radialGradient id="paint43_radial_157_6105" cx="0" cy="0" r="1" gradientUnits="userSpaceOnUse" gradientTransform="translate(10.5756 40.3236) rotate(91.1283) scale(18.9445 17.8754)">
<stop stop-color="#1614D1"/>
<stop offset="0.359375" stop-color="#1F2656"/>
</radialGradient>
<radialGradient id="paint44_radial_157_6105" cx="0" cy="0" r="1" gradientUnits="userSpaceOnUse" gradientTransform="translate(15.5983 32.3488) rotate(91.1961) scale(12.8631 12.8659)">
<stop stop-color="#1614D1"/>
<stop offset="0.359375" stop-color="#1F2656"/>
</radialGradient>
<radialGradient id="paint45_radial_157_6105" cx="0" cy="0" r="1" gradientUnits="userSpaceOnUse" gradientTransform="translate(22.667 26.8521) rotate(91.1979) scale(14.6749 14.7)">
<stop stop-color="#1614D1"/>
<stop offset="0.359375" stop-color="#1F2656"/>
</radialGradient>
<radialGradient id="paint46_radial_157_6105" cx="0" cy="0" r="1" gradientUnits="userSpaceOnUse" gradientTransform="translate(34.1747 16.7731) rotate(91.0385) scale(15.5006 13.4625)">
<stop stop-color="#1614D1"/>
<stop offset="0.359375" stop-color="#1F2656"/>
</radialGradient>
<radialGradient id="paint47_radial_157_6105" cx="0" cy="0" r="1" gradientUnits="userSpaceOnUse" gradientTransform="translate(41.3145 13.7362) rotate(90.858) scale(15.7009 11.2662)">
<stop stop-color="#1614D1"/>
<stop offset="0.359375" stop-color="#1F2656"/>
</radialGradient>
<radialGradient id="paint48_radial_157_6105" cx="0" cy="0" r="1" gradientUnits="userSpaceOnUse" gradientTransform="translate(47.1006 9.983) rotate(91.2062) scale(9.7118 9.79588)">
<stop stop-color="#1614D1"/>
<stop offset="0.359375" stop-color="#1F2656"/>
</radialGradient>
<radialGradient id="paint49_radial_157_6105" cx="0" cy="0" r="1" gradientUnits="userSpaceOnUse" gradientTransform="translate(54.1564 5.75067) rotate(90.8342) scale(15.4997 10.8138)">
<stop stop-color="#1614D1"/>
<stop offset="0.359375" stop-color="#1F2656"/>
</radialGradient>
<radialGradient id="paint50_radial_157_6105" cx="0" cy="0" r="1" gradientUnits="userSpaceOnUse" gradientTransform="translate(59.7779 5.31716) rotate(90.5088) scale(13.332 5.67356)">
<stop stop-color="#1614D1"/>
<stop offset="0.359375" stop-color="#1F2656"/>
</radialGradient>
<radialGradient id="paint51_radial_157_6105" cx="0" cy="0" r="1" gradientUnits="userSpaceOnUse" gradientTransform="translate(64.6067 6.10319) rotate(90.8611) scale(9.51212 6.85038)">
<stop stop-color="#1614D1"/>
<stop offset="0.359375" stop-color="#1F2656"/>
</radialGradient>
<clipPath id="clip0_157_6105">
<rect width="136.105" height="137" fill="white"/>
</clipPath>
</defs>
</svg>
