<svg width="97" height="96" viewBox="0 0 97 96" fill="none" xmlns="http://www.w3.org/2000/svg">
<path d="M92.2062 25.0501C97.9267 19.3216 97.9267 10.0128 92.2062 4.29636C86.4857 -1.43212 77.1649 -1.43212 71.4485 4.29636L27.6968 48.04C21.6603 47.708 15.5158 49.8442 10.9114 54.4445C4.90691 60.453 1.51463 77.4104 0.562549 85.5311C0.226521 88.3834 1.1946 91.1796 3.21877 93.2038C4.97492 94.9639 7.31911 95.928 9.77932 95.928C10.1513 95.928 10.5234 95.904 10.8914 95.86C11.8555 95.748 34.6454 92.9877 42.05 85.5831C46.6504 80.9827 48.7826 74.8382 48.4505 68.8017L92.2062 25.0501ZM36.3895 79.9227C32.9732 83.3389 20.0082 86.7272 9.95133 87.9113C9.41129 87.9953 9.03926 87.7113 8.87124 87.5433C8.70723 87.3793 8.43921 87.0192 8.50321 86.4592C9.67931 76.4504 13.1996 63.4693 16.5679 60.097C19.3041 57.3648 22.8884 56.0007 26.4807 56.0007C30.073 56.0007 33.6573 57.3688 36.3935 60.097C41.858 65.5615 41.858 74.4542 36.3935 79.9187L36.3895 79.9227ZM42.046 54.4445C40.4019 52.8004 38.5577 51.4683 36.5936 50.4562L77.1009 9.94883C79.7011 7.34861 83.9455 7.34861 86.5457 9.94883C89.1459 12.549 89.1459 16.7854 86.5457 19.3896L46.0343 59.897C45.0183 57.9328 43.6901 56.0887 42.046 54.4445Z" fill="#FFB13E"/>
<path d="M19.3841 39.6353C20.1642 40.4154 21.1883 40.8074 22.2124 40.8074C23.2364 40.8074 24.2605 40.4154 25.0406 39.6353C26.6047 38.0712 26.6047 35.543 25.0406 33.9788L10.4554 19.3936C7.85116 16.7894 7.85116 12.553 10.4554 9.94883C13.0596 7.34861 17.2999 7.34861 19.8962 9.94883L34.4814 24.538C36.0455 26.1022 38.5737 26.1022 40.1378 24.538C41.702 22.9739 41.702 20.4457 40.1378 18.8816L25.5526 4.29236C19.8242 -1.42812 10.5154 -1.42812 4.7949 4.28836C-0.925575 10.0048 -0.929576 19.3256 4.7949 25.0461L19.3841 39.6353Z" fill="#FFB13E"/>
<path d="M89.47 68.2137L77.649 56.3887C76.0848 54.8246 73.5566 54.8246 71.9925 56.3887C70.4284 57.9528 70.4284 60.481 71.9925 62.0452L83.8135 73.8702C86.7937 76.8464 88.5019 80.9667 88.5019 85.1831V87.9993H85.6896C81.4133 87.9993 77.393 86.3352 74.3727 83.3109L62.5477 71.49C60.9836 69.9258 58.4554 69.9258 56.8912 71.49C55.3271 73.0541 55.3271 75.5823 56.8912 77.1464L68.7162 88.9674C73.2446 93.5038 79.2771 96 85.6896 96H92.5022C94.7144 96 96.5025 94.2118 96.5025 91.9997V85.1831C96.5025 78.8626 93.9383 72.6741 89.47 68.2137Z" fill="#FFB13E"/>
</svg>
