<svg width="106" height="34" viewBox="0 0 106 34" fill="none" xmlns="http://www.w3.org/2000/svg">
<path d="M52.7324 6.66801V0.5H72.9305V6.66801H52.7324Z" fill="#E89A27"/>
<path d="M72.9305 19.3515V13.2704H59.1611V9.18732H52.7324V32.8169H72.9305V26.562H59.1611V19.3515H72.9305Z" fill="white"/>
<path d="M48.2147 6.66801V0.5H28.0166V6.66801H48.2147Z" fill="#E89A27"/>
<path d="M34.4452 19.3515V26.562H48.2147V32.8169H28.0166V9.18732H34.4452V13.531H48.2147V19.6121L34.4452 19.3515Z" fill="white"/>
<path d="M21.9351 25.9105C22.1526 24.9413 22.2547 23.9499 22.2392 22.9568V0.5H15.854V22.2184L21.9351 25.9105Z" fill="#E89A27"/>
<path d="M15.42 24.8245C15.2213 25.2513 14.9409 25.6349 14.5947 25.9539C13.5315 26.8487 12.1571 27.286 10.7723 27.1701C9.69345 27.244 8.61758 26.9887 7.6869 26.438C6.75622 25.8874 6.01455 25.0673 5.5599 24.0861L0 27.257C0.963045 29.2553 2.50607 30.9168 4.42773 32.0249C6.34938 33.1329 8.56042 33.636 10.7723 33.4685C13.7784 33.5843 16.7201 32.5779 19.0253 30.6451C19.8334 29.9117 20.5093 29.0448 21.0234 28.0823L15.42 24.8245Z" fill="white"/>
<path d="M95.1264 2.84558L91.9556 12.3148L99.4267 33.4685H105.942L95.1264 2.84558Z" fill="#E89A27"/>
<path d="M92.0858 21.2628H86.0481L93.0414 0.5H86.439L75.0151 33.1644H81.965L83.9197 27.257H94.1273L92.0858 21.2628Z" fill="white"/>
</svg>
