<svg width="49" height="96" viewBox="0 0 49 96" fill="none" xmlns="http://www.w3.org/2000/svg">
<path d="M48.5001 9.75891V2.26208C48.5001 1.03039 47.5113 0.0276354 46.2798 0.0122604C40.1791 -0.0646148 31.713 0.00194765 24.5001 7.11722C17.4249 0.137886 9.30859 -0.0214897 2.73369 0.0212604C1.49713 0.0293229 0.5 1.0347 0.5 2.27127V9.70473C0.5 10.9585 1.52338 11.9694 2.77719 11.9544C7.64583 11.8962 18.5001 12.608 18.5001 21.0341V42H11.75C10.5075 42 9.50003 43.0074 9.50003 44.25V51.75C9.50003 52.9926 10.5075 54 11.75 54H18.5001V75.0001C18.5001 83.4249 7.98596 84.0059 2.75938 83.9924C1.51325 83.9893 0.5 84.995 0.5 86.2411V93.738C0.5 94.9697 1.48888 95.9724 2.72038 95.9878C8.82109 96.0645 17.2871 95.9979 24.5001 88.8826C31.5752 95.862 39.6916 96.0213 46.2664 95.9786C47.503 95.9705 48.5001 94.9652 48.5001 93.7286V86.2951C48.5001 85.0413 47.4768 84.0305 46.2229 84.0455C41.3543 84.1038 30.5001 83.4262 30.5001 75.0001V54H37.2501C38.4927 54 39.5001 52.9926 39.5001 51.75V44.25C39.5001 43.0074 38.4927 42 37.2501 42H30.5001V21.0341C30.5001 12.6093 41.0142 11.9941 46.2408 12.0074C47.4869 12.0108 48.5001 11.005 48.5001 9.75891Z" fill="#FFB13E"/>
</svg>
