<svg width="146" height="117" viewBox="0 0 146 117" fill="none" xmlns="http://www.w3.org/2000/svg">
<path d="M89.8404 0.884176C85.9896 -0.225746 81.9803 2.01675 80.8704 5.8675L51.8765 107.346C50.7666 111.197 53.0091 115.206 56.8598 116.316C60.7106 117.426 64.7199 115.183 65.8298 111.333L94.8237 9.85415C95.9336 6.00341 93.6911 1.9941 89.8404 0.884176ZM108.097 28.0886C105.266 30.92 105.266 35.5183 108.097 38.3497L128.325 58.6001L108.075 78.8505C105.243 81.6819 105.243 86.2802 108.075 89.1116C110.906 91.9431 115.504 91.9431 118.336 89.1116L143.706 63.742C146.537 60.9106 146.537 56.3123 143.706 53.4809L118.336 28.1112C115.504 25.2798 110.906 25.2798 108.075 28.1112L108.097 28.0886ZM38.6254 28.0886C35.794 25.2571 31.1957 25.2571 28.3643 28.0886L2.99467 53.4582C0.163236 56.2897 0.163236 60.8879 2.99467 63.7193L28.3643 89.089C31.1957 91.9204 35.794 91.9204 38.6254 89.089C41.4569 86.2575 41.4569 81.6593 38.6254 78.8279L18.375 58.6001L38.6254 38.3497C41.4569 35.5183 41.4569 30.92 38.6254 28.0886Z" fill="#FFB13E"/>
</svg>
